<svg xmlns="http://www.w3.org/2000/svg" viewBox="0 0 1749.59 1703.45"><g style="isolation:isolate"><g id="Layer_1" data-name="Layer 1"><path d="M289.4,1064.78c7.1-136.23-45.4-232.86,27.79-336.17,45.33-64,220-145.1,265.34-209.07,15.22-21.48,30.69-43.24,50.06-59,53-43.13,122.44-33.1,186.1-29.29,47,2.81,94.44,1.25,140.56-10.12,117-28.84,217.18-118,327.32-174.12A642.6,642.6,0,0,1,1444,190.84c49.8-10.63,102.19-14.76,149.94,5.5s89.87,69.51,96,130.68c3.44,34.21-4.3,68.48-6.17,102.86s4.08,73.23,27.14,93.17c18.65,16.13,43.6,15.74,64.65,26.63,53.45,27.65,64.23,114.45,57.25,184.73s-22.95,146.08,4.51,208.46c7.61,17.28,18.26,32.48,25,50.28,8.1,21.33,10.19,45.25,11.35,68.7,6.47,131-13.16,263.74-56.73,383.72-7.25,20-15.44,40.08-28.52,55-16.22,18.52-38.29,27.23-56.53,42.71-20.48,17.38-35.58,42.81-55.63,60.93-37.36,33.77-86.74,38.23-133.17,41.45-129.41,9-261,17.75-387.12-18.55-142.8-41.09-277.88-139.4-424.4-130.12-77,4.87-156.22,39.37-229.08,8.63-36-15.19-67.18-46.67-86.86-86.36-20.86-42.06-20.05-94.35-43-134.84-15.28-27-40.33-41.55-56.12-67.79C291.64,1175.25,286.81,1114.44,289.4,1064.78Z" transform="translate(-125.34 -182)" style="fill:#fee4cb;opacity:0.84"/><path d="M1858.52,1291.57a1004,1004,0,0,0,15.1-129.79c-73.45-13-148.53-19.32-218.63-44.49-2.47-9.19,6.87-17,15.38-21.3a148.34,148.34,0,0,1,105.21-9.89c12.26,3.45,24,8.49,36.29,12,20.49,5.77,41.75,7,63,5.34q-.17-20.79-1.16-41.54c-.9-18.17-2.37-36.62-6.75-53.93-33.71.64-67.63,1.06-100.82-4.79-49.59-8.75-98.45-31.44-148.2-23.6-30.45,4.8-57.92,20.71-87.45,29.55-59.94,18-124.21,6-186.77,7.43-23.49.54-47.86,3.31-67.88,15.6s-34.45,36.36-29,59.22c5.56,23.24,28.5,37.57,50.17,47.67a470.05,470.05,0,0,0,124.72,38.15c56.9,9,115,7.51,172.23,13.8,13.7,1.5,28,3.72,39,12.12,9,6.87,14.56,17.09,21.61,25.89,25.11,31.37,67,43.34,106.44,50.8A692.71,692.71,0,0,0,1858.52,1291.57Z" transform="translate(-125.34 -182)" style="fill:#fff;opacity:0.2"/><path d="M206.85,894.12c25.47-16.19,36.74,30.69,39.29,43.43a186.87,186.87,0,0,1,30,7.13c-8.6-13.26-22.89-17.46-25.86-27.39-3.33-11.13.22-24.78,18-13.76,14.08,8.73,12.58,32.73,11.34,42.33a170.83,170.83,0,0,1,36,17.5c-7.81-16.7-23.85-23.47-26.06-35.11-2.41-12.72,3.07-27.19,21.47-12.44,15.21,12.18,9.76,40.11,7.41,49.43a101.11,101.11,0,0,1,12.32,9.61A331.14,331.14,0,0,1,354.1,999c-6.55-14.86-19.18-23.5-19.88-34.28-.83-12.93,6.38-26.32,22.87-8.84,13,13.82,5.5,38.85,1.78,48.7a328.06,328.06,0,0,1,35.45,51.88c-1.36-15.17-13.12-36-10-50.19,2-9.31,7.73-11.61,12.18-11.9a12.17,12.17,0,0,1,10.15,4.71c15,18.17-4.33,51-10.58,60.57a329.53,329.53,0,0,1,24.3,57.82c-.64-7.85-1.66-19.7-2.43-25.83-1.22-9.67,1.58-23.29,8-28.87.27-.23.54-.45.8-.65,5.13-3.86,12.07-2.41,16.41,2.83,17,20.45-14,52.35-20.84,59,0,.12.07.24.1.36,12.42,43.19,11.81,73.76,11.78,75l-4.15-.27c0-.3.57-29.4-10.59-69.92-39-4.39-50.67-29.66-45.72-39.19,5.11-9.84,20.1-13.6,27.64,4.66,4.37,10.59,11.09,20.63,16,27.2a325.26,325.26,0,0,0-24.46-59.13c-50.3,14.08-56-22.43-45.94-31.1s18.79-3.6,27.54,10.16a68.7,68.7,0,0,0,16.88,18.12,323.3,323.3,0,0,0-34.63-51c-5.89,8-22.26,27.26-38.88,19.58-20.76-9.59-13.48-22.93-3.05-27.68,9.59-4.37,23.46,7.54,39.86,5.62a326.87,326.87,0,0,0-26.53-27.88c-.15-.15-8.54-8.07-24.24-16.67-5,8.9-19,30.2-36.17,25-21.59-6.55-15.87-20.88-6.09-27.12,8.73-5.56,23.14,3.56,38.6.19a177.77,177.77,0,0,0-53.89-17.49c-5.24,9.19-19,29.56-35.88,24.44-21.58-6.55-15.87-20.88-6.08-27.11,8.85-5.65,23.54,3.82,39.25,0l0-.5c-5.59-2.63-17.48-8.17-23.28-10.49-7.74-3.09-16.61-12-17.88-20.86A15.66,15.66,0,0,1,206.85,894.12Z" transform="translate(-125.34 -182)" style="fill:#07085b"/><path d="M241.82,1127.61l-63-1c-21.94-39.57-38-74-38-74,71.07-16.53,131.09-9.92,181.13,9.2l27.69,66.87,5.79-51.55c124.05,66.62,175.39,208.06,175.39,208.06s-219-22.88-265.5-44.38c-17.95-8.3-40.59-38.25-61.64-71.89C220.43,1152.91,241.82,1127.61,241.82,1127.61Z" transform="translate(-125.34 -182)" style="fill:#06bfad"/><path d="M140.82,1052.61s281.38,117.75,390,232.58c0,0-219-22.88-265.5-44.38-17.95-8.3-40.59-38.25-61.64-71.89,16.75-16,38.14-41.31,38.14-41.31l-63-1C156.92,1087,140.82,1052.61,140.82,1052.61Z" transform="translate(-125.34 -182)" style="fill:#02ccc0"/><path d="M126,1126.45c12-19.91,35.87,8.57,42,16.48a144.16,144.16,0,0,1,23.11-5.36c-10.47-6.2-21.76-4.19-27.22-10-6.11-6.54-8.34-17.17,7.69-15.66,12.71,1.19,19.9,18.26,22.34,25.31a130.89,130.89,0,0,1,30.83-.28c-11.11-8.84-24.5-8-30-15.28-6-8-7.21-19.8,10.53-15.94,14.67,3.18,20.49,24.31,22.06,31.55a79.69,79.69,0,0,1,11.8,2.4,256.14,256.14,0,0,1,24.39,8.65c-9.61-8-21.28-9.63-25.46-16.83-5-8.63-4.62-20.34,12.74-13.94,13.74,5.07,17.11,24.91,17.92,33a252.46,252.46,0,0,1,42.24,23.62c-6.14-10-21.39-20.34-24.11-31.18-1.79-7.12,1.35-10.66,4.32-12.39a9.4,9.4,0,0,1,8.62-.23c16.6,7.38,14.49,36.66,13.47,45.41a253.6,253.6,0,0,1,36.58,31.55c-3.13-5.2-7.9-13-10.53-17-4.16-6.25-6.9-16.6-4.37-22.66a7.89,7.89,0,0,1,.33-.72c2.21-4.42,7.49-5.8,12.28-3.68,18.72,8.29,8.31,40.91,5.85,47.84l.2.21c23.37,25.53,33.43,46.83,33.85,47.72l-3,1.24c-.1-.21-9.69-20.48-31.27-44.6-28.43,10.35-45.12-3.09-45-11.35.15-8.54,9.2-16.27,20.66-6.26a103.06,103.06,0,0,0,20.34,13.28,249.93,249.93,0,0,0-37.15-32.4c-29.86,27-46.31,3.73-42.34-5.7s11.72-8.92,22.47-2.43a53.15,53.15,0,0,0,17.86,6.71,249.22,249.22,0,0,0-41.39-23.34c-1.31,7.54-6,26.43-20.1,26.84-17.61.5-17.16-11.19-11.59-18,5.11-6.3,18.76-2.84,29.41-9.79A250.94,250.94,0,0,0,238.52,1143c-.16-.06-8.66-2.64-22.43-3.19-.4,7.85-2.75,27.34-16.39,29.63-17.13,2.88-18.1-9-13.5-16.62,4.12-6.82,17.18-5.48,26.69-13.1a136.79,136.79,0,0,0-43.17,6.41c-.46,8.14-3,26.91-16.36,29.16-17.13,2.88-18.1-9-13.49-16.62,4.17-6.92,17.55-5.43,27.09-13.42l-.15-.36c-4.76.1-14.86.36-19.65.75-6.4.52-15.56-2.56-19.49-8.27A12.07,12.07,0,0,1,126,1126.45Z" transform="translate(-125.34 -182)" style="fill:#feb546"/><path d="M150.17,1241.69c37.81-23.13,76-35.54,112.93-40.53,10.86,13.44,24.19,29.26,24.19,29.26l1.34-31.58c141.79-6.75,259.49,88,259.49,88-82,51.93-152.06,66.35-209.46,61.84-3.42-11-8.27-27.51-8.27-27.51l-10.09,25.39a247.69,247.69,0,0,1-72.8-23.23c5.34-13.16,11-28.22,11-28.22l-30.53,17.42C176.66,1281.35,150.17,1241.69,150.17,1241.69Z" transform="translate(-125.34 -182)" style="fill:#55769f"/><path d="M338.66,1348.71c-3.42-11-8.27-27.51-8.27-27.51l-10.09,25.39a247.69,247.69,0,0,1-72.8-23.23c5.34-13.16,11-28.22,11-28.22l-30.53,17.42c-51.28-31.21-77.77-70.87-77.77-70.87,165.19-19.42,398,45.18,398,45.18C466.09,1338.8,396.06,1353.22,338.66,1348.71Z" transform="translate(-125.34 -182)" style="fill:#07085b"/><path d="M1723.37,1461.05l74.08-1.2c25.81-46.55,44.76-87,44.76-87-83.62-19.46-125.13-21.28-184,1.21l-38.35,60-7.07-49.29c-146,78.37-229.43,261.73-229.43,261.73s257.7-26.92,312.38-52.21c21.11-9.77,47.75-45,72.51-84.59C1748.54,1490.81,1723.37,1461.05,1723.37,1461.05Z" transform="translate(-125.34 -182)" style="fill:#06bfad"/><path d="M1842.21,1372.81s-331.07,138.53-458.86,273.64c0,0,257.7-26.92,312.38-52.21,21.11-9.77,47.75-45,72.51-84.59-19.7-18.84-44.87-48.6-44.87-48.6l74.08-1.2C1823.26,1413.3,1842.21,1372.81,1842.21,1372.81Z" transform="translate(-125.34 -182)" style="fill:#02ccc0"/><path d="M1831.2,1595.27c-44.48-27.21-89.39-41.82-132.86-47.69-12.78,15.82-28.46,34.42-28.46,34.42l-1.58-37.15c-166.83-7.94-305.31,103.57-305.31,103.57,96.51,61.11,178.91,78.07,246.44,72.76,4-13,9.73-32.36,9.73-32.36l11.87,29.87a291.53,291.53,0,0,0,85.66-27.33c-6.29-15.49-12.91-33.2-12.91-33.2l35.92,20.5C1800,1641.94,1831.2,1595.27,1831.2,1595.27Z" transform="translate(-125.34 -182)" style="fill:#feb546"/><path d="M1609.43,1721.18c4-13,9.73-32.36,9.73-32.36l11.87,29.87a291.53,291.53,0,0,0,85.66-27.33c-6.29-15.49-12.91-33.2-12.91-33.2l35.92,20.5c60.34-36.72,91.5-83.39,91.5-83.39-194.35-22.85-468.21,53.15-468.21,53.15C1459.5,1709.53,1541.9,1726.49,1609.43,1721.18Z" transform="translate(-125.34 -182)" style="fill:#f4a640"/><polygon points="1456.09 653.88 884.36 527.26 884.36 1423.25 1456.09 1543.93 1456.09 653.88" style="fill:#1c2072"/><polygon points="1471.05 1543.71 1456.09 1543.93 1456.09 647.87 1471.05 647.65 1471.05 1543.71" style="fill:#07085b"/><polygon points="884.36 527.26 890.92 522.3 1471.05 647.65 1456.09 653.88 884.36 527.26" style="fill:#4d5296"/><polygon points="312.64 653.88 884.36 527.26 884.36 1423.25 312.64 1543.93 312.64 653.88" style="fill:#1c2072"/><path d="M462,844.35,970.08,718.17s26.69,11.21,39.62,9.66L768.2,929.67s-167.33,21.68-171.59,14.46S462,844.35,462,844.35Z" transform="translate(-125.34 -182)" style="fill:#eaf5f9"/><polygon points="336.62 1539.71 401.37 1568.68 401.37 691.32 336.62 662.35 336.62 1539.71" style="fill:#daeef7"/><polygon points="884.36 1423.25 401.37 1568.68 401.37 691.26 884.36 545.83 884.36 1423.25" style="fill:#cae2ea"/><polygon points="835.97 689.22 449.77 805.51 449.77 742.31 835.97 626.02 835.97 689.22" style="fill:#cae2ea;opacity:0.5;mix-blend-mode:multiply"/><polygon points="835.97 716.76 593.03 789.91 593.03 778.57 835.97 705.42 835.97 716.76" style="fill:#cae2ea;opacity:0.5;mix-blend-mode:multiply"/><polygon points="835.97 745.12 593.03 818.27 593.03 806.93 835.97 733.78 835.97 745.12" style="fill:#cae2ea;opacity:0.5;mix-blend-mode:multiply"/><polygon points="835.97 773.48 593.03 846.63 593.03 835.28 835.97 762.13 835.97 773.48" style="fill:#cae2ea;opacity:0.5;mix-blend-mode:multiply"/><polygon points="835.97 801.83 593.03 874.98 593.03 863.64 835.97 790.49 835.97 801.83" style="fill:#cae2ea;opacity:0.5;mix-blend-mode:multiply"/><polygon points="835.97 830.19 593.03 903.34 593.03 892 835.97 818.85 835.97 830.19" style="fill:#cae2ea;opacity:0.5;mix-blend-mode:multiply"/><polygon points="835.97 858.54 593.03 931.69 593.03 920.35 835.97 847.2 835.97 858.54" style="fill:#cae2ea;opacity:0.5;mix-blend-mode:multiply"/><polygon points="835.97 886.9 593.03 960.05 593.03 948.71 835.97 875.56 835.97 886.9" style="fill:#cae2ea;opacity:0.5;mix-blend-mode:multiply"/><polygon points="835.97 915.26 593.03 988.41 593.03 977.06 835.97 903.91 835.97 915.26" style="fill:#cae2ea;opacity:0.5;mix-blend-mode:multiply"/><polygon points="835.97 943.61 593.03 1016.76 593.03 1005.42 835.97 932.27 835.97 943.61" style="fill:#cae2ea;opacity:0.5;mix-blend-mode:multiply"/><polygon points="835.97 971.97 593.03 1045.12 593.03 1033.78 835.97 960.63 835.97 971.97" style="fill:#cae2ea;opacity:0.5;mix-blend-mode:multiply"/><polygon points="835.97 1000.33 449.77 1116.62 449.77 1105.27 835.97 988.98 835.97 1000.33" style="fill:#cae2ea;opacity:0.5;mix-blend-mode:multiply"/><polygon points="642.87 1086.83 449.77 1144.97 449.77 1133.63 642.87 1075.48 642.87 1086.83" style="fill:#cae2ea;opacity:0.5;mix-blend-mode:multiply"/><polygon points="642.87 1115.18 449.77 1173.33 449.77 1161.98 642.87 1103.84 642.87 1115.18" style="fill:#cae2ea;opacity:0.5;mix-blend-mode:multiply"/><polygon points="642.87 1143.54 449.77 1201.68 449.77 1190.34 642.87 1132.2 642.87 1143.54" style="fill:#cae2ea;opacity:0.5;mix-blend-mode:multiply"/><polygon points="642.87 1171.89 449.77 1230.04 449.77 1218.7 642.87 1160.55 642.87 1171.89" style="fill:#cae2ea;opacity:0.5;mix-blend-mode:multiply"/><polygon points="642.87 1200.25 449.77 1258.4 449.77 1247.06 642.87 1188.91 642.87 1200.25" style="fill:#cae2ea;opacity:0.5;mix-blend-mode:multiply"/><polygon points="642.87 1228.61 449.77 1286.75 449.77 1275.41 642.87 1217.27 642.87 1228.61" style="fill:#cae2ea;opacity:0.5;mix-blend-mode:multiply"/><polygon points="642.87 1256.96 449.77 1315.11 449.77 1303.77 642.87 1245.62 642.87 1256.96" style="fill:#cae2ea;opacity:0.5;mix-blend-mode:multiply"/><polygon points="642.87 1285.32 449.77 1343.47 449.77 1332.12 642.87 1273.98 642.87 1285.32" style="fill:#cae2ea;opacity:0.5;mix-blend-mode:multiply"/><polygon points="642.87 1313.68 449.77 1371.82 449.77 1360.48 642.87 1302.33 642.87 1313.68" style="fill:#cae2ea;opacity:0.5;mix-blend-mode:multiply"/><polygon points="835.97 1283.89 449.77 1400.18 449.77 1388.84 835.97 1272.55 835.97 1283.89" style="fill:#cae2ea;opacity:0.5;mix-blend-mode:multiply"/><polygon points="835.97 1312.24 449.77 1428.53 449.77 1417.19 835.97 1300.9 835.97 1312.24" style="fill:#cae2ea;opacity:0.5;mix-blend-mode:multiply"/><polygon points="835.97 1340.6 449.77 1456.89 449.77 1445.55 835.97 1329.26 835.97 1340.6" style="fill:#cae2ea;opacity:0.5;mix-blend-mode:multiply"/><polygon points="449.77 1088.26 577.06 1049.93 577.06 783.38 449.77 821.71 449.77 1088.26" style="fill:#cae2ea;opacity:0.5;mix-blend-mode:multiply"/><polygon points="656.5 1309.57 835.97 1255.53 835.97 1017.34 656.5 1071.38 656.5 1309.57" style="fill:#cae2ea;opacity:0.5;mix-blend-mode:multiply"/><path d="M1557.44,844.35,1049.31,718.17s-26.68,11.21-39.61,9.66l241.49,201.84s167.33,21.68,171.59,14.46S1557.44,844.35,1557.44,844.35Z" transform="translate(-125.34 -182)" style="fill:#f3fcff"/><polygon points="1432.1 1539.71 1367.35 1568.68 1367.35 691.32 1432.1 662.35 1432.1 1539.71" style="fill:#b6d5e0"/><polygon points="884.36 1423.25 1367.35 1568.68 1367.35 691.26 884.36 545.83 884.36 1423.25" style="fill:#daeef7"/><polygon points="297.68 1543.71 312.64 1543.93 312.64 647.87 297.68 647.65 297.68 1543.71" style="fill:#07085b"/><polygon points="884.36 527.26 877.8 522.3 297.68 647.65 312.64 653.88 884.36 527.26" style="fill:#4d5296"/><path d="M1056.62,713.09c-18.33-6.52-32.91-8.55-42.42-9.05-5.78-.53-23.51-1-50.84,8.73a32.45,32.45,0,0,0,5,4h0a60.65,60.65,0,0,0,25.11,9.47C1030.25,734,1056.62,713.09,1056.62,713.09Z" transform="translate(-125.34 -182)" style="fill:#07085b"/><polygon points="908.34 1382.8 1343.84 1513.93 1343.84 722.8 908.34 591.66 908.34 1382.8" style="fill:#07085b"/><path d="M1033.68,1174.54V1564.8l231.93,69.84a276.34,276.34,0,0,0,59.9-261.45C1288,1243.27,1163.56,1162.06,1033.68,1174.54Z" transform="translate(-125.34 -182)" style="fill:#feb546"/><path d="M1093.58,1175.34a275.65,275.65,0,0,1,51.35,98.16c32.41,112.26-9.51,228.36-96.71,295.68l217.39,65.46a276.34,276.34,0,0,0,59.9-261.45C1293.84,1263.48,1200.16,1188.5,1093.58,1175.34Z" transform="translate(-125.34 -182)" style="fill:#f4a640"/><path d="M1285.72,1290.25c72.37-14.93,135.22-24.68,183.45-28.51v-24.3c-56.93,8.45-123,21-195.23,37.33Q1280.07,1282.27,1285.72,1290.25Z" transform="translate(-125.34 -182)" style="fill:#d37300"/><path d="M1469.17,1379.91V1355.6c-90.3,43.86-232.48,96.28-395.2,143.24q-20.31,5.87-40.29,11.4v16.54q22.17-6.16,44.7-12.66C1228.77,1470.71,1364.66,1423.46,1469.17,1379.91Z" transform="translate(-125.34 -182)" style="fill:#d37300"/><g style="opacity:0.2;mix-blend-mode:screen"><path d="M1169.67,814.61l-136-40.94v378.41c15.57-8.17,29-19.58,37.45-34.92,9.78-17.72,12.45-39.65,26.52-54.2,17.42-18,45.63-18.35,69.21-26.85,7.4-2.68,14.81-6.52,19.18-13.07,3.15-4.73,4.42-10.45,5.31-16.07a149.68,149.68,0,0,0-2.14-57.47c-8.44-35.88-30.24-69.76-26.64-106.44C1163.53,833.26,1166.28,823.86,1169.67,814.61Z" transform="translate(-125.34 -182)" style="fill:#daeef7"/></g><g style="opacity:0.2;mix-blend-mode:screen"><path d="M1469.17,1038.14c-22.62-.71-45.24-1.15-67.81.78-12.22,1-25.12,3.14-34.65,12.24-13,12.44-16.16,34.16-25,51-29.61,56.13-107.09,38.92-147.82,84.24-11,12.19-18.35,28.07-26.52,43a360.35,360.35,0,0,1-52.3,73c-20.62,22.14-45.45,44.41-49.26,77.06-3.23,27.67,10,54,23.68,76.77,26.6,44.31,57,85.57,80.33,132.38,3.3,6.61,6.46,13.34,9.59,20.1l289.79,87.26Z" transform="translate(-125.34 -182)" style="fill:#daeef7"/></g><path d="M1337.5,992.91c5.14,0,5.14-8,0-8s-5.15,8,0,8Z" transform="translate(-125.34 -182)" style="fill:#daeef7"/><path d="M1101.77,1138c3.6,0,3.6-5.59,0-5.59s-3.6,5.59,0,5.59Z" transform="translate(-125.34 -182)" style="fill:#daeef7"/><path d="M1066.27,1040.79c4.62,0,4.63-7.19,0-7.19s-4.64,7.19,0,7.19Z" transform="translate(-125.34 -182)" style="fill:#daeef7"/><path d="M1392.88,1186.21c7.19,0,7.2-11.18,0-11.18s-7.21,11.18,0,11.18Z" transform="translate(-125.34 -182)" style="fill:#daeef7"/><path d="M1127.33,904.87c5.14,0,5.15-8,0-8s-5.15,8,0,8Z" transform="translate(-125.34 -182)" style="fill:#daeef7"/><path d="M1292.05,923.33c5.14,0,5.15-8,0-8s-5.14,8,0,8Z" transform="translate(-125.34 -182)" style="fill:#daeef7"/><path d="M1398.56,1103.67c5.14,0,5.15-8,0-8s-5.15,8,0,8Z" transform="translate(-125.34 -182)" style="fill:#daeef7"/><path d="M1255.13,1106.51c5.14,0,5.15-8,0-8s-5.14,8,0,8Z" transform="translate(-125.34 -182)" style="fill:#daeef7"/><path d="M1448.26,923.33c5.14,0,5.15-8,0-8s-5.15,8,0,8Z" transform="translate(-125.34 -182)" style="fill:#daeef7"/><path d="M1134.43,881c3.6,0,3.6-5.59,0-5.59s-3.6,5.59,0,5.59Z" transform="translate(-125.34 -182)" style="fill:#daeef7"/><path d="M1292.05,1238.18c4.63,0,4.64-7.19,0-7.19s-4.63,7.19,0,7.19Z" transform="translate(-125.34 -182)" style="fill:#daeef7"/><path d="M1387.2,1513.67c4.62,0,4.63-7.19,0-7.19s-4.64,7.19,0,7.19Z" transform="translate(-125.34 -182)" style="fill:#daeef7"/><path d="M1411.34,1539.85c3.6,0,3.6-5.59,0-5.59s-3.61,5.59,0,5.59Z" transform="translate(-125.34 -182)" style="fill:#daeef7"/><path d="M1448.26,1472.31c2.57,0,2.57-4,0-4s-2.57,4,0,4Z" transform="translate(-125.34 -182)" style="fill:#daeef7"/><path d="M1432.64,1180.58c3.6,0,3.6-5.59,0-5.59s-3.6,5.59,0,5.59Z" transform="translate(-125.34 -182)" style="fill:#daeef7"/><path d="M1077.63,877.89c5.14,0,5.15-8,0-8s-5.15,8,0,8Z" transform="translate(-125.34 -182)" style="fill:#daeef7"/><path d="M1050.65,1126.62c3.6,0,3.6-5.59,0-5.59s-3.61,5.59,0,5.59Z" transform="translate(-125.34 -182)" style="fill:#daeef7"/><path d="M1269.33,1092.54c3.6,0,3.61-5.59,0-5.59s-3.6,5.59,0,5.59Z" transform="translate(-125.34 -182)" style="fill:#daeef7"/><path d="M1222.47,1064.14c3.6,0,3.61-5.6,0-5.6s-3.6,5.6,0,5.6Z" transform="translate(-125.34 -182)" style="fill:#daeef7"/><path d="M1382.94,997.39c3.6,0,3.6-5.59,0-5.59s-3.61,5.59,0,5.59Z" transform="translate(-125.34 -182)" style="fill:#daeef7"/><path d="M1381.52,1349.56c3.6,0,3.6-5.59,0-5.59s-3.61,5.59,0,5.59Z" transform="translate(-125.34 -182)" style="fill:#daeef7"/><path d="M1404.24,1366.6c3.6,0,3.6-5.59,0-5.59s-3.61,5.59,0,5.59Z" transform="translate(-125.34 -182)" style="fill:#daeef7"/><path d="M1347.44,1552.63c3.59,0,3.6-5.59,0-5.59s-3.61,5.59,0,5.59Z" transform="translate(-125.34 -182)" style="fill:#daeef7"/><path d="M1267.56,976.14s-1.62,16.94-14.23,14.36c12.61,5,14.23,22.91,14.23,22.91s1.62-16.94,14.23-14.36C1269.18,994.06,1267.56,976.14,1267.56,976.14Z" transform="translate(-125.34 -182)" style="fill:#daeef7"/><path d="M1392.88,1595.87s-1.62,17-14.23,14.36c12.61,5,14.23,22.92,14.23,22.92s1.62-17,14.23-14.37C1394.5,1613.79,1392.88,1595.87,1392.88,1595.87Z" transform="translate(-125.34 -182)" style="fill:#daeef7"/><path d="M1251.42,857.34s-1.29,13.5-11.33,11.44c10,4,11.33,18.25,11.33,18.25s1.3-13.5,11.34-11.44C1252.72,871.61,1251.42,857.34,1251.42,857.34Z" transform="translate(-125.34 -182)" style="fill:#daeef7"/><path d="M1113.42,976.14s-1.11,11.62-9.75,9.85c8.64,3.42,9.75,15.71,9.75,15.71s1.11-11.62,9.76-9.85C1114.53,988.42,1113.42,976.14,1113.42,976.14Z" transform="translate(-125.34 -182)" style="fill:#daeef7"/><path d="M1422.88,1290.25s-1.11,11.62-9.75,9.85c8.64,3.43,9.75,15.71,9.75,15.71s1.11-11.62,9.76-9.85C1424,1302.54,1422.88,1290.25,1422.88,1290.25Z" transform="translate(-125.34 -182)" style="fill:#daeef7"/><path d="M1377.44,904.43s-.8,8.39-7,7.11c6.25,2.47,7,11.35,7,11.35s.8-8.4,7-7.12C1378.24,913.3,1377.44,904.43,1377.44,904.43Z" transform="translate(-125.34 -182)" style="fill:#daeef7"/><path d="M1432.64,1058.5s-.8,8.39-7.05,7.11c6.25,2.48,7.05,11.35,7.05,11.35s.8-8.39,7-7.11C1433.44,1067.37,1432.64,1058.5,1432.64,1058.5Z" transform="translate(-125.34 -182)" style="fill:#daeef7"/><path d="M1327.24,1058.5s-.8,8.39-7,7.11c6.24,2.48,7,11.35,7,11.35s.8-8.39,7-7.11C1328,1067.37,1327.24,1058.5,1327.24,1058.5Z" transform="translate(-125.34 -182)" style="fill:#daeef7"/><path d="M1113.42,807.81s-.8,8.4-7,7.12c6.24,2.47,7,11.35,7,11.35s.8-8.4,7-7.12C1114.22,816.69,1113.42,807.81,1113.42,807.81Z" transform="translate(-125.34 -182)" style="fill:#daeef7"/><path d="M1175.3,1152.65s-.69,7.14-6,6c5.31,2.1,6,9.65,6,9.65s.68-7.14,6-6C1176,1160.2,1175.3,1152.65,1175.3,1152.65Z" transform="translate(-125.34 -182)" style="fill:#daeef7"/><path d="M1473.56,1701.84l-444.27-133.77V767.75l444.27,133.78Zm-435.49-140.31L1464.78,1690v-782L1038.07,779.58Z" transform="translate(-125.34 -182)" style="fill:#07085b"/><path d="M565.56,1874.08,180.31,1739,485.44,1570.7l394.05,140.89L583.26,1872.66A21.89,21.89,0,0,1,565.56,1874.08Z" transform="translate(-125.34 -182)" style="fill:#e03268"/><path d="M210.27,1592.77s58,67-9.07,140.35l363,136.39a24.76,24.76,0,0,0,26-5.39l13.17-12.74S649,1726,649,1722.87s-91.46-77.27-91.46-77.27S407,1627.46,403,1627.46,210.27,1592.77,210.27,1592.77Z" transform="translate(-125.34 -182)" style="fill:#daeef7"/><path d="M604.88,1828.52c-2.36,0-269.64-88.31-269.64-88.31s266.49,96.88,267.28,94.52S604.88,1828.52,604.88,1828.52Z" transform="translate(-125.34 -182)" style="fill:#daeef7;mix-blend-mode:multiply"/><path d="M189.77,1589.22v8.28L573,1728.78s23.66,29.57,21.29,69.78-11.08,72-23.68,72.42c0,0,8,.65,12-1.83s13.38-10.87,13.38-10.87,15.86-71.55,16.65-73.32-8.28-60.12-14.39-64.46-1-11.24-30-16.56S311,1596.12,305.47,1597.5s-52.82-.79-55.39,0S189.77,1589.22,189.77,1589.22Z" transform="translate(-125.34 -182)" style="fill:#e03268"/><path d="M578.87,1725.23s48.78,82.8,0,149.23l324.84-176s38.24-78.45-11-127.72Z" transform="translate(-125.34 -182)" style="fill:#e03268"/><polygon points="453.53 1543.23 64.43 1407.22 415.69 1287.77 767.33 1388.69 453.53 1543.23" style="fill:#ff5b7e"/><path d="M516.58,1752l-283.16-98.52q.15,3.11.09,6.32Z" transform="translate(-125.34 -182)" style="fill:#daeef7;mix-blend-mode:multiply"/><path d="M230.21,1682.9c-.78,2.89-1.73,5.82-2.83,8.79l207.79,67.84Z" transform="translate(-125.34 -182)" style="fill:#daeef7;mix-blend-mode:multiply"/><path d="M516.88,1682.29l393-116.7L614.45,1420.14,212.29,1541.88l287,139.18A24.62,24.62,0,0,0,516.88,1682.29Z" transform="translate(-125.34 -182)" style="fill:#06bfad"/><path d="M888.35,1439.21s-61.81,57.91,1,121.27L518.52,1678.35c-9.16,2.91-19.15,1.1-25.66-4.66l-12.43-11s-38.52-108.33-38.33-111,95.9-66.77,95.9-66.77,151.64-15.67,155.58-15.67S888.35,1439.21,888.35,1439.21Z" transform="translate(-125.34 -182)" style="fill:#daeef7"/><path d="M480.17,1642.92c2.37,0,274.73-76.3,274.73-76.3s-272.07,83.71-272.72,81.67S480.17,1642.92,480.17,1642.92Z" transform="translate(-125.34 -182)" style="fill:#daeef7;mix-blend-mode:multiply"/><path d="M909.05,1436.15l-.47,7.15L517.84,1556.74s-25.35,25.55-25.3,60.29,6.93,62.2,19.52,62.58c0,0-8,.57-11.88-1.58s-12.75-9.39-12.75-9.39-11.75-61.83-12.44-63.36,11.74-52,18.1-55.7,1.63-9.7,30.91-14.3,263.43-93.17,268.87-92,52.87-.68,55.39,0S909.05,1436.15,909.05,1436.15Z" transform="translate(-125.34 -182)" style="fill:#06bfad"/><path d="M512.13,1553.67s-53.55,71.55-8.58,128.95L188.83,1530.51s-33.72-67.79,18.39-110.37Z" transform="translate(-125.34 -182)" style="fill:#06bfad"/><polygon points="386.8 1371.67 783.72 1254.15 439.34 1150.93 81.88 1238.14 386.8 1371.67" style="fill:#02ccc0"/><path d="M572.88,1576.83,861.7,1491.7c-.22,1.79-.37,3.62-.45,5.47Z" transform="translate(-125.34 -182)" style="fill:#daeef7;mix-blend-mode:multiply"/><path d="M863.23,1517.09a70.65,70.65,0,0,0,2.32,7.6l-211.7,58.62Z" transform="translate(-125.34 -182)" style="fill:#daeef7;mix-blend-mode:multiply"/><path d="M260.11,1443.3s-53,55.27-11.57,116.16L272,1570.7s-30.14-72.85,14.64-115.79Z" transform="translate(-125.34 -182)" style="fill:#06bfad;opacity:0.30000000000000004;mix-blend-mode:multiply"/><path d="M607.37,1539.74,280,1428.65,518.36,1290.8l335.06,115.89-231.59,131.9A17.66,17.66,0,0,1,607.37,1539.74Z" transform="translate(-125.34 -182)" style="fill:#f4a640"/><path d="M293.54,1308.7s52.79,55,3.21,115.12L605.88,1536c7.64,2.78,15.81,1.06,21-4.4l9.87-10.44s28.11-102.8,27.87-105.39-81.16-63.46-81.16-63.46-125.33-15-128.58-15S293.54,1308.7,293.54,1308.7Z" transform="translate(-125.34 -182)" style="fill:#daeef7"/><path d="M636.27,1502.39c-1.94,0-228.66-72.64-228.66-72.64s226.72,79.67,227.19,77.74S636.27,1502.39,636.27,1502.39Z" transform="translate(-125.34 -182)" style="fill:#daeef7;mix-blend-mode:multiply"/><path d="M276.4,1305.77l.63,6.79,325.38,108s21.72,24.27,22.83,57.26-3.65,59-14,59.39c0,0,6.6.54,9.72-1.49s10.19-8.91,10.19-8.91,7.62-58.68,8.13-60.13-11.38-49.33-16.74-52.89-1.67-9.22-25.92-13.61-219.93-88.64-224.37-87.52-43.54-.68-45.59,0S276.4,1305.77,276.4,1305.77Z" transform="translate(-125.34 -182)" style="fill:#f4a640"/><path d="M607,1417.65s46.45,67.95,11.34,122.41l254-144.15s25.51-64.33-18.8-104.79Z" transform="translate(-125.34 -182)" style="fill:#f4a640"/><polygon points="481.67 1235.64 151.06 1123.77 431.1 1026.06 728.22 1109.12 481.67 1235.64" style="fill:#feb546"/><path d="M557.78,1439.59l-240.56-81c.24,1.7.42,3.43.55,5.19Z" transform="translate(-125.34 -182)" style="fill:#daeef7;mix-blend-mode:multiply"/><path d="M316.8,1382.65c-.42,2.37-1,4.78-1.65,7.21l176.19,55.81Z" transform="translate(-125.34 -182)" style="fill:#daeef7;mix-blend-mode:multiply"/><polygon points="453.33 1202.35 261.96 1135.23 299.79 1118.77 502.52 1178.86 453.33 1202.35" style="fill:#f4a640"/><polygon points="912.74 540.36 1408.46 672.93 1415.96 1546.93 1399.73 1559.77 1399.73 676.84 912.74 540.36" style="fill:#b6d5e0;mix-blend-mode:multiply"/><path d="M1018.36,1836c4.61,1.37,9.87-.59,12-4.47,7.79-14.27,28.19-48,61.22-77.73,1.37-1.23,7.85-5.57,33.75-9.68,18.36-2.91,43.29-5.23,74.09-6.88,52.28-2.81,122-3.76,207.11-2.82,145.18,1.58,286.7,8.19,288.11,8.25l2-15.78c-1.42-.07-143.33-6.69-288.91-8.28-85.62-.94-155.79,0-208.54,2.85-91.11,4.89-112.49,14.24-120.94,21.83a319,319,0,0,0-64.86,82.24c-2.27,4.21,0,9,5,10.47Z" transform="translate(-125.34 -182)" style="fill:#e03268"/><path d="M1711.18,1885.35c-4.93.67-9.44-2-10.27-6.1-3-15.07-12.19-51-35-84.81-.94-1.4-5.89-6.58-29.87-14.36-17-5.51-40.6-11.4-70.14-17.49-50.16-10.34-117.9-21.4-201.35-32.86-142.28-19.56-282.58-33.69-284-33.83l3.12-15.69c1.4.14,142.09,14.3,284.76,33.91,83.91,11.53,152.12,22.67,202.74,33.1,87.4,18,105.3,30.26,111.12,38.9,24.32,36.1,33.86,73.56,37.08,89.74.88,4.44-2.89,8.78-8.25,9.49Z" transform="translate(-125.34 -182)" style="fill:#ce1b5c"/><polygon points="973.23 1562.16 1139.34 1413.33 1195.88 1453.07 1027.39 1604.33 973.23 1562.16" style="fill:#daeef7;opacity:0.5"/><polygon points="1197.58 1462.24 1038.72 1607 1051.04 1611.47 1204.37 1471.38 1197.58 1462.24" style="fill:#daeef7;opacity:0.5"/><path d="M1452.89,1770.77s151.65-144.43,153.11-144.64,48.59,21.06,48.59,21.06l-163,158.8Z" transform="translate(-125.34 -182)" style="fill:#daeef7;opacity:0.5"/><path d="M1500.06,1809.45c1.74-1.89,157.81-156,157.81-156l7.94,9.89-157.35,150.94Z" transform="translate(-125.34 -182)" style="fill:#daeef7;opacity:0.5"/><ellipse cx="1215.66" cy="1695.1" rx="121.9" ry="102.12" transform="translate(-352.65 6.77) rotate(-8.12)" style="fill:#daeef7;opacity:0.30000000000000004"/><ellipse cx="1563.55" cy="1720.69" rx="121.9" ry="102.12" transform="translate(-352.73 56.14) rotate(-8.12)" style="fill:#daeef7;opacity:0.30000000000000004"/><path d="M1694.14,1718.5l-2.4-.18c.86-24.61-8.16-48.13-26-67.24C1645,1629,1614.9,1615.4,1581,1612.9s-67.64,6.37-94.93,25c-22.53,15.35-38.44,35.83-45.92,58.71-23.27-17.64-49.48-17.86-68.55-14.39a131.61,131.61,0,0,0-27.66,8.41c.28-23.83-8.73-46.55-26.1-65.11-20.71-22.12-50.8-35.68-84.73-38.18s-67.65,6.37-94.93,25c-23.57,16.06-39.89,37.72-46.9,61.87l-2.41-.18c-9.37-.68-18,5.2-19.3,13.16h0c-1.28,7.95,5.28,14.95,14.65,15.64l3.26.24c.57,22.59,9.53,44,26.07,61.71,20.71,22.12,50.8,35.68,84.73,38.18s67.65-6.37,94.93-25c25.36-17.28,42.33-41,48.34-67.41l.1.12a108.78,108.78,0,0,1,33.8-12.22c24.08-4.23,44.22,2.1,59.84,18.79l.54-.36c-2.75,26.84,6.23,52.74,25.62,73.46,20.7,22.12,50.79,35.68,84.73,38.18s67.65-6.37,94.93-25c21.79-14.85,37.39-34.49,45.16-56.46l3.26.24c9.37.69,18-5.2,19.3-13.16S1703.52,1719.19,1694.14,1718.5Zm-364.7-15c-8.6,53.24-66.64,92.79-129.38,88.18s-106.79-51.68-98.19-104.91,66.64-92.79,129.38-88.18S1338,1650.24,1329.44,1703.47Zm347.89,25.59c-8.6,53.24-66.64,92.79-129.38,88.18s-106.78-51.68-98.18-104.92c.31-1.94.7-3.87,1.15-5.78l.11-.08-.08-.08c11.8-50.2,67.82-86.67,128.2-82.23C1641.89,1628.77,1685.93,1675.83,1677.33,1729.06Z" transform="translate(-125.34 -182)" style="fill:#ff5b7e"/><path d="M780.13,1492.52l-7.92,17.66a2.89,2.89,0,0,0,1.46,3.82L815,1532.54a3.28,3.28,0,0,0,4.08-4.8l-16-24.93S790.44,1505.13,780.13,1492.52Z" transform="translate(-125.34 -182)" style="fill:#333"/><path d="M597.89,1272.81S585.15,1332.75,643,1347s130.73,15.68,130.73,15.68L775,1502.29l30.42,3.48s90.77-188.15-16.1-225.21l-97.78-5.69-40.07-5.41s-40.09-12.64-40.69-10.75S598.79,1273.83,597.89,1272.81Z" transform="translate(-125.34 -182)" style="fill:#e03268"/><path d="M823.77,1113.05c8.7-11,5.36-20.18-6.44-36.46-17.9-24.71-39.91-28.41-58.74-44.92-6.6-5.78-17.49-24.07-24.65-36.84a187.33,187.33,0,0,1-9.74-20.43c-16-38.77-53.42-32.47-53.42-32.47s1.93,49.05,2.07,50.42c0,.28,1.55,1.07,3.93,2.16-7.47,7.35-19.54,19.29-21.92,23.25-3.46,5.75-17.67,30.71-17.67,30.71s24.62,68.38,26.94,87.5c1.23,10.12,16.49,13,33.7,14,10.89,21,26,42.19,42.1,40.8,31.3-2.71,30.19-14.81,40.44-24.73s32,.51,46-16.52C837.12,1136.49,818.35,1119.9,823.77,1113.05Z" transform="translate(-125.34 -182)" style="fill:#333"/><path d="M711.62,1153.29S700.73,1264,711,1278.23H669.16V1146.7Z" transform="translate(-125.34 -182)" style="fill:#ffc0bb"/><path d="M603.27,963S591,981.44,584.8,988.73c-15.69,18.35-17.72,12.6-27.47,28.38-10.53,17,.12,27.7,6.18,32.61s-4.08,23.07,7.2,33.25c14.77,13.33,28.44.76,38.6,8.23s12.38,18.53,36.47,16.44,23.85-80.84,23.85-80.84-19.72-41.75-20.5-42.1S603.27,963,603.27,963Z" transform="translate(-125.34 -182)" style="fill:#333"/><path d="M665.94,1075s-40.2-7.4-58.69-6.77,11.21,48.68,11.21,48.68l30.19.67s18.5-20.67,17.29-23.07.06-18.18.06-18.18Z" transform="translate(-125.34 -182)" style="fill:#ffc0bb"/><path d="M630.1,1036.62l-10.61,32.18s9.23,19.09,37.5,10.86c0,0-3.22-6.67,1.1-20.4C662.51,1045.24,630.1,1036.62,630.1,1036.62Z" transform="translate(-125.34 -182)" style="fill:#ffc0bb"/><path d="M630.1,1036.62l-5,15c3,11,12.58,18.47,30.73,20.8a43.77,43.77,0,0,1,2.24-13.19C662.51,1045.24,630.1,1036.62,630.1,1036.62Z" transform="translate(-125.34 -182)" style="fill:#fc8d84;opacity:0.6000000000000001"/><path d="M694.77,1013.06c-2.29,5.22-.76,11,3.42,12.78s9.43-.91,11.72-6.13.77-11-3.41-12.79S697.06,1007.83,694.77,1013.06Z" transform="translate(-125.34 -182)" style="fill:#f99893"/><path d="M692.43,1043.93a43.4,43.4,0,0,0,3.51-7.14,81.79,81.79,0,0,0,5-20.19c.17-1.35.41-2.68.68-4a44.15,44.15,0,1,0-87.4-10,9.53,9.53,0,0,0-8.58-.9c-5.29,2.2-7.36,9.35-4.61,16s9.27,10.21,14.57,8a8.43,8.43,0,0,0,2-1.2c1.63,21.67,18.89,38.82,40.14,39a39.59,39.59,0,0,0,27.16-10.47,19.29,19.29,0,0,0,1.53-1.36A38.38,38.38,0,0,0,692.43,1043.93Z" transform="translate(-125.34 -182)" style="fill:#ffc0bb"/><path d="M682.35,1005a26.78,26.78,0,0,0-1.42,7.44,20.27,20.27,0,0,0,.14,3.88,9.79,9.79,0,0,0,1.33,4l.37.48.33.4a3.87,3.87,0,0,1,.44.56A2.75,2.75,0,0,1,684,1023a3.41,3.41,0,0,1-.85,2.61c-1.34,1.67-3.68,2.58-6.14,3.08a8.57,8.57,0,0,0,7.51-1.79,5.19,5.19,0,0,0,1.75-4.11,4.34,4.34,0,0,0-.24-1.19,5.06,5.06,0,0,0-.5-1.08,5.72,5.72,0,0,0-.7-.92,2.34,2.34,0,0,1-.24-.32l-.21-.26a9.43,9.43,0,0,1-1.09-3,30.6,30.6,0,0,1-.51-3.53C682.59,1010,682.5,1007.55,682.35,1005Z" transform="translate(-125.34 -182)" style="fill:#f99893"/><path d="M667.41,1010.16a3.86,3.86,0,1,1-3.82-3.9A3.87,3.87,0,0,1,667.41,1010.16Z" transform="translate(-125.34 -182)" style="fill:#333"/><path d="M696,1010.86a3.86,3.86,0,1,1-3.82-3.89A3.85,3.85,0,0,1,696,1010.86Z" transform="translate(-125.34 -182)" style="fill:#333"/><path d="M666.84,1035.76a12.29,12.29,0,0,1,10.17,1.36s5.33-3.34,9.54-.15a10.14,10.14,0,0,1-10.72,7.4A9,9,0,0,1,666.84,1035.76Z" transform="translate(-125.34 -182)" style="fill:#f99893;opacity:0.30000000000000004;mix-blend-mode:multiply"/><path d="M662.25,1032.92a26.79,26.79,0,0,0,3.11,2.19,27.92,27.92,0,0,0,3.33,1.77,22.88,22.88,0,0,0,7.19,1.92,19.36,19.36,0,0,0,7.36-.82,27,27,0,0,0,6.75-3.37,23.94,23.94,0,0,1-3,2.34,21.91,21.91,0,0,1-3.46,1.73,17.49,17.49,0,0,1-3.78,1,19.63,19.63,0,0,1-3.91.11,20.2,20.2,0,0,1-7.42-2.22A21.75,21.75,0,0,1,662.25,1032.92Z" transform="translate(-125.34 -182)" style="fill:#f99893"/><path d="M668.84,998.64a39.46,39.46,0,0,0-5.68-1.15,19.58,19.58,0,0,0-5.36.08,18.22,18.22,0,0,0-5.09,1.55c-.88.31-1.63.87-2.52,1.28s-1.63,1-2.59,1.5a15.9,15.9,0,0,1,1.62-2.63,13,13,0,0,1,2.25-2.19,12.5,12.5,0,0,1,5.88-2.51,13,13,0,0,1,6.36.61A11.82,11.82,0,0,1,668.84,998.64Z" transform="translate(-125.34 -182)" style="fill:#333"/><path d="M686.43,998.64a11.89,11.89,0,0,1,5.51-2.81,13.06,13.06,0,0,1,6.39.17,12.48,12.48,0,0,1,5.53,3.21,13.09,13.09,0,0,1,2,2.44,16.15,16.15,0,0,1,1.29,2.81c-.89-.57-1.6-1.24-2.39-1.8a27.46,27.46,0,0,0-2.35-1.57,18.16,18.16,0,0,0-4.86-2.17,20.14,20.14,0,0,0-5.31-.73A40.85,40.85,0,0,0,686.43,998.64Z" transform="translate(-125.34 -182)" style="fill:#333"/><path d="M687.6,1165.74s-7.84,22.94-9.27,35.13c-3.54,30.26,3,56.24,9.27,73.47,8.79,24.16-65.66,10.74-67.13,10s-63-24.52-63-24.52l-4.64-47.43-7.08-46.65,3.3-27.46Z" transform="translate(-125.34 -182)" style="fill:#02ccc0"/><path d="M569.66,1099s9.53.83,8.49,17.4-8.77,48.12-8.77,48.12S494.23,1309,477.76,1323a5.18,5.18,0,0,1-3.19,1.22L422,1325.8h0a16,16,0,0,1,8.71-5.92l23.6-6.26a3.49,3.49,0,0,0,2.18-1.7l7.56-13.81,57-152c5.82-13.55,19.65-21.29,29.15-32.55C557.1,1105.32,564.67,1098.23,569.66,1099Z" transform="translate(-125.34 -182)" style="fill:#ffc0bb"/><path d="M665.94,1075s-27.33,31.89-58.69-6.77c0,0-34.25-2.79-59.51,15.14s-40.38,58.23-40.38,58.23,45.76,23.06,57.1,24.16h127a112.73,112.73,0,0,0,38.07-11S726.34,1090.72,665.94,1075Z" transform="translate(-125.34 -182)" style="fill:#02ccc0"/><path d="M584.8,1117.56c-1.3,3.92-2.46,7.88-3.64,11.83s-2.23,7.94-3.29,11.94-2,8-2.89,12-1.72,8.09-2.37,12.19l1-1a23.55,23.55,0,0,1-4.19,0c-1.44-.09-2.89-.31-4.33-.51-2.88-.51-5.76-1.06-8.6-1.86l-2.13-.56-2.12-.65c-1.4-.45-2.82-.85-4.21-1.35l-4.19-1.45-4.14-1.6c-2.77-1-5.47-2.26-8.22-3.38l-8.1-3.69-8-3.89c-2.64-1.36-5.29-2.72-8-4,2.51,1.59,5.06,3.14,7.61,4.69s5.16,3,7.78,4.42,5.29,2.76,8,4.1l4.07,1.88c1.36.63,2.71,1.27,4.1,1.82a130.67,130.67,0,0,0,17,6l2.18.58,2.21.5c1.46.37,3,.6,4.45.86s3,.41,4.54.5a25.71,25.71,0,0,0,4.72,0l.83-.1.13-.87c1.24-8.1,2.88-16.16,4.6-24.21l2.61-12.08Z" transform="translate(-125.34 -182)" style="fill:#daeef7"/><path d="M681.38,1108.3q2.68,7,4.87,14.13a122.56,122.56,0,0,1,3.53,14.38,69.51,69.51,0,0,1,1,7.3,52.79,52.79,0,0,1,.18,7.33c-.18,4.89-7.43,27.9-9.56,32.46,3-4,10.9-27.25,11.43-32.31a52.32,52.32,0,0,0-.66-15.2c-.47-2.49-1-5-1.72-7.39s-1.49-4.83-2.41-7.18A76.71,76.71,0,0,0,681.38,1108.3Z" transform="translate(-125.34 -182)" style="fill:#daeef7"/><path d="M614.18,1002.63s46.93-11.33,69.35-43.22c0,0,.39-29-42.69-22.45C599,943.36,589.17,984.1,614.18,1002.63Z" transform="translate(-125.34 -182)" style="fill:#333"/><path d="M726.54,1490.42l-7.91,17.66a2.88,2.88,0,0,0,1.45,3.82l41.35,18.54a3.28,3.28,0,0,0,4.08-4.8l-16-24.93S736.86,1503,726.54,1490.42Z" transform="translate(-125.34 -182)" style="fill:#333"/><path d="M555.44,1258.1c-12.28,16.12-14.86,37.91-5.89,56.09,6.22,12.62,18,24.38,39.65,29.72,57.8,14.23,130.73,15.68,130.73,15.68l1.35,139.62,30.42,3.49s90.78-188.15-16.09-225.21l-97.78-5.69-40.07-5.42s-40.1-12.63-40.7-10.74A12,12,0,0,1,555.44,1258.1Z" transform="translate(-125.34 -182)" style="fill:#ff5b7e"/><path d="M736.18,1363.31c-1.55-.28-3.11-.54-4.64-.9s-3-.77-4.53-1.22c-.75-.23-1.51-.48-2.25-.76a18,18,0,0,0,2.28-.65,19.6,19.6,0,0,0,4.15-2.13,21.85,21.85,0,0,0,6.21-6.74l-1.55,1.67c-.55.52-1.06,1.06-1.64,1.55a22.54,22.54,0,0,1-3.58,2.65,20.43,20.43,0,0,1-4,1.87,14.73,14.73,0,0,1-4.23.85l-2.51.1,2.23,1a28.9,28.9,0,0,0,4.57,1.6,47,47,0,0,0,4.68,1c1.57.25,3.15.47,4.73.59s3.17.19,4.75.19C739.3,1363.79,737.73,1363.6,736.18,1363.31Z" transform="translate(-125.34 -182)" style="fill:#daeef7"/><path d="M1016.56,611a59.81,59.81,0,0,1,73.3-44.41,88,88,0,0,1,105.84-46.75,108.43,108.43,0,0,1,194.76,18.94,74.38,74.38,0,0,1,110.54,65c0,2.44-.13,4.84-.35,7.22Z" transform="translate(-125.34 -182)" style="fill:#fff;opacity:0.5"/><path d="M848.58,569a16.49,16.49,0,0,0-16.06-12.78,16.76,16.76,0,0,0-4.16.53,24.29,24.29,0,0,0-29.19-12.89,29.9,29.9,0,0,0-53.71,5.23A20.5,20.5,0,0,0,715,567a18.81,18.81,0,0,0,.1,2Z" transform="translate(-125.34 -182)" style="fill:#fff;opacity:0.5"/><path d="M1637.56,319.59a23.65,23.65,0,0,0-29-17.56,34.84,34.84,0,0,0-41.85-18.49,42.88,42.88,0,0,0-77,7.5,29.41,29.41,0,0,0-43.71,25.7c0,1,0,1.91.14,2.85Z" transform="translate(-125.34 -182)" style="fill:#fff;opacity:0.5"/><path d="M1831.19,647.63a81.5,81.5,0,0,0-122.85,19.82,66.19,66.19,0,0,0-79.59,35.16A45,45,0,0,0,1573.62,736h259.06c0-.53.11-1.06.16-1.59C1835.61,706.5,1835.58,676,1831.19,647.63Z" transform="translate(-125.34 -182)" style="fill:#fff;opacity:0.5"/><path d="M326.63,717H614.25a44.29,44.29,0,0,0-54.32-32.9,65.2,65.2,0,0,0-78.42-34.64,80.6,80.6,0,0,0-28.05-27.76C403.83,654.44,353.63,687.26,326.63,717Z" transform="translate(-125.34 -182)" style="fill:#fff;opacity:0.5"/><path d="M1820.81,606.36c-9.32-25.12-23.86-45.63-45.22-56.68-21-10.89-46-10.5-64.65-26.63-11.44-9.89-18.67-24.43-22.82-40.77-87.38-.09-175,3.71-259.68-16.33-7.06-1.67-14.37-3.65-19.78-8.49-11.67-10.45-9.24-30.6,1.21-42.27s26.3-16.72,41.55-20.27c77.07-17.94,156.71-9.81,236.16-4.51,2.38-21.16,4.51-42.28,2.39-63.39a152.83,152.83,0,0,0-3.44-20.25c-78,2.81-156.13-8.19-234.18-6.08-8.93.24-18.54.9-25.47,6.54-6.23,5.08-9,13.15-13.29,19.94-13,20.41-38.69,27.83-62.15,33.69l-254.72,63.53c-23.09,5.76-47.34,12.15-64.36,28.78-29.57,28.89-22.58,85.6,13.12,106.45,20.93,12.22,46.53,12.3,70.77,12l113-1.21c25.76-.28,52.34-.41,76.13,9.47,22.15,9.19,40.2,26.4,62.25,35.81,24.12,10.29,51.16,10.53,77.38,10.61l290.13.84c22.32.07,45.35,0,65.92-8.68A78.84,78.84,0,0,0,1820.81,606.36Z" transform="translate(-125.34 -182)" style="fill:#fff;opacity:0.2"/><path d="M353.73,1396S334,1416,343,1443c0,0,6-14,12-18,0,0-1,17,6,24,0,0,6.18-37.67,25.09-41.33Z" transform="translate(-125.34 -182)" style="fill:#ff5b7e"/><path d="M578.87,1615.79S591,1630,590,1648c0,0,6.66-9.21,8.33-16.1A25.27,25.27,0,0,1,609,1643s7.47-19.06-.26-35.53Z" transform="translate(-125.34 -182)" style="fill:#feb546"/><path d="M391.49,1708.51S371,1736,378,1780c0,0,7-18,23-28,0,0,7,29,11,39,0,0,16-58.35,35-63.17Z" transform="translate(-125.34 -182)" style="fill:#02ccc0"/></g></g></svg>