<svg height='300px' width='300px'  fill="#000000" xmlns:dc="http://purl.org/dc/elements/1.1/" xmlns:cc="http://creativecommons.org/ns#" xmlns:rdf="http://www.w3.org/1999/02/22-rdf-syntax-ns#" xmlns:svg="http://www.w3.org/2000/svg" xmlns="http://www.w3.org/2000/svg" xmlns:sodipodi="http://sodipodi.sourceforge.net/DTD/sodipodi-0.dtd" xmlns:inkscape="http://www.inkscape.org/namespaces/inkscape" version="1.1" x="0px" y="0px" viewBox="0 0 100 100"><g transform="translate(0,-952.36218)"><path style="font-size:medium;font-style:normal;font-variant:normal;font-weight:normal;font-stretch:normal;text-indent:0;text-align:start;text-decoration:none;line-height:normal;letter-spacing:normal;word-spacing:normal;text-transform:none;direction:ltr;block-progression:tb;writing-mode:lr-tb;text-anchor:start;baseline-shift:baseline;opacity:1;color:#000000;fill:#000000;fill-opacity:1;stroke:none;stroke-width:3.99999951999999980;marker:none;visibility:visible;display:inline;overflow:visible;enable-background:accumulate;font-family:Sans;-inkscape-font-specification:Sans" d="M 7.8125 14 A 2.0021961 2.0021961 0 1 0 8 18 C 18.433571 18 26.395942 18.5341 32.78125 20.21875 C 39.166558 21.9034 43.996752 24.68706 48.5625 29.40625 A 2.0001998 2.0001998 0 0 0 51.4375 29.40625 C 56.003248 24.68706 60.833442 21.9034 67.21875 20.21875 C 73.604058 18.5341 81.566429 18 92 18 A 2.0001998 2.0001998 0 1 0 92 14 C 81.433571 14 73.187102 14.50527 66.21875 16.34375 C 59.89437 18.01233 54.668137 20.89626 50 25.28125 C 45.331863 20.89626 40.10563 18.01233 33.78125 16.34375 C 26.812898 14.50527 18.566429 14 8 14 A 2.0001998 2.0001998 0 0 0 7.8125 14 z M 7.78125 21.96875 A 2.0001998 2.0001998 0 0 0 6 24 L 6 72 A 2.0001998 2.0001998 0 0 0 8 74 C 18.433571 74 26.395943 74.53415 32.78125 76.21875 C 39.166557 77.90345 43.996752 80.68705 48.5625 85.40625 A 2.0001998 2.0001998 0 0 0 51.4375 85.40625 C 56.003248 80.68705 60.833443 77.90345 67.21875 76.21875 C 73.604057 74.53415 81.566429 74 92 74 A 2.0001998 2.0001998 0 0 0 94 72 L 94 24 A 2.0001998 2.0001998 0 1 0 90 24 L 90 70.0625 C 80.471781 70.1335 72.698161 70.63435 66.21875 72.34375 C 60.775738 73.779813 56.160486 76.143899 52 79.5625 L 52 36 A 2.0001998 2.0001998 0 0 0 49.78125 33.96875 A 2.0001998 2.0001998 0 0 0 48 36 L 48 79.5625 C 43.839514 76.143899 39.224262 73.779813 33.78125 72.34375 C 27.301839 70.63435 19.528219 70.1331 10 70.0625 L 10 24 A 2.0001998 2.0001998 0 0 0 7.96875 21.96875 A 2.0001998 2.0001998 0 0 0 7.78125 21.96875 z M 15.8125 26 A 2.0021961 2.0021961 0 1 0 16 30 C 24.008501 30 30.186265 30.91418 35.28125 32.84375 A 2.0001998 2.0001998 0 1 0 36.71875 29.125 C 31.024529 26.96849 24.321063 26 16 26 A 2.0001998 2.0001998 0 0 0 15.8125 26 z M 84 26 C 75.678937 26 68.975471 26.96849 63.28125 29.125 A 2.0001998 2.0001998 0 1 0 64.71875 32.84375 C 69.813735 30.91418 75.991499 30 84 30 A 2.0001998 2.0001998 0 1 0 84 26 z M 15.8125 37 A 2.0021961 2.0021961 0 1 0 16 41 C 27.183205 41 34.825803 42.93694 40.96875 46.6875 A 2.0001998 2.0001998 0 1 0 43.03125 43.28125 C 36.149477 39.07961 27.655823 37 16 37 A 2.0001998 2.0001998 0 0 0 15.8125 37 z M 84 37 C 72.344177 37 63.850523 39.07961 56.96875 43.28125 A 2.0001998 2.0001998 0 1 0 59.03125 46.6875 C 65.174197 42.93694 72.816795 41 84 41 A 2.0001998 2.0001998 0 1 0 84 37 z M 15.8125 48 A 2.0021961 2.0021961 0 1 0 16 52 C 27.183205 52 34.825803 53.9369 40.96875 57.6875 A 2.0001998 2.0001998 0 1 0 43.03125 54.28125 C 36.149477 50.07965 27.655823 48 16 48 A 2.0001998 2.0001998 0 0 0 15.8125 48 z M 84 48 C 72.344177 48 63.850523 50.07965 56.96875 54.28125 A 2.0001998 2.0001998 0 1 0 59.03125 57.6875 C 65.174197 53.9369 72.816795 52 84 52 A 2.0001998 2.0001998 0 1 0 84 48 z M 15.8125 59 A 2.0021961 2.0021961 0 1 0 16 63 C 27.183205 63 34.825803 64.9369 40.96875 68.6875 A 2.0001998 2.0001998 0 1 0 43.03125 65.28125 C 36.149477 61.07965 27.655823 59 16 59 A 2.0001998 2.0001998 0 0 0 15.8125 59 z M 84 59 C 72.344177 59 63.850523 61.07965 56.96875 65.28125 A 2.0001998 2.0001998 0 1 0 59.03125 68.6875 C 65.174197 64.9369 72.816795 63 84 63 A 2.0001998 2.0001998 0 1 0 84 59 z " transform="translate(0,952.36218)"></path></g></svg>