<svg xmlns="http://www.w3.org/2000/svg" viewBox="0 0 635.64 626.76"><g id="Layer_4" data-name="Layer 4"><path d="M1488,312.49" transform="translate(-239.2 -199.43)" style="fill:none;stroke:#ffe8b4;stroke-miterlimit:10"/><path d="M1113.17,244.06" transform="translate(-239.2 -199.43)" style="fill:none;stroke:#ffe8b4;stroke-miterlimit:10"/><path d="M670.82,229.22c-5,1.81-10.29,3.94-14.46,7.4-4.38,3.63-6.47,8.73-8.3,14-2.77,7.94,10,13.47,13.71,5.78,3.59-7.5,9.19-13.67,11.52-21.8,1.8-6.33-5.4-11.72-11-8.47a35.2,35.2,0,0,0-12.44,12.14l12.95,7.57c2.25-5.07,6.38-9.12,9.27-13.83,3.53-5.78-2.29-12.48-8.47-11-5,1.17-9.45,5.84-13.33,8.94s-8.49,6.37-10.13,11.48c-3.44,10.75,5.16,19.45,14.31,23.48,5.72,2.51,9.87.63,14.39-3,3.42-2.76,7.33-6,10-9.38,6.17-7.76,5.69-21.49-3.93-26.16-8.65-4.2-16.26,8.74-7.57,12.95.94.46.8.12.38,1.89-.47,2-.51,1.9-2.14,3.29-3,2.5-5.3,6-8.91,7.71l3.79-1c-2.21,0-6.66-3.66-5.65-5.6s4.32-3.67,6-5,5.1-4.7,6.7-5.08l-8.47-11c-2.88,4.71-7,8.76-9.26,13.83-3.83,8.64,7.74,16,12.95,7.57a19.13,19.13,0,0,1,7.06-6.75l-11-8.47c-1.91,6.69-7,12-10,18.21l13.71,5.77c.93-2.67,1.78-5.27,4.13-7a32.16,32.16,0,0,1,8.15-3.89c9-3.25,5.13-17.75-4-14.46Z" transform="translate(-239.2 -199.43)" style="fill:#ffb000"/><path d="M634.34,204.37c-2.28.82-4.63,1.74-5.84,4-1.32,2.5-1.62,5.76.08,8.18,2.15,3,4.89,4,8.47,3.44,3.87-.57,6.44-4.89,6.46-8.5,0-5.23-5.58-9.11-10.49-7.62-3.14.94-6.11,3.46-6.91,6.75-.91,3.76.64,8.18,4.27,9.94v-13l1.27-.51,5.78.75-.27-.12,3.45,4.48-.07-.25-1.92,7.29.22-.17-5.31,2.2a22.73,22.73,0,0,0,6.14-.72,12.58,12.58,0,0,0,3.43-1.46q.92-.45-.87.12-1.86.28-.84.27a9.58,9.58,0,0,0,2.85-.37c3.87-.73,6.42-5.59,5.24-9.23-1.34-4.12-5.09-6-9.23-5.23l.84-.17a13.89,13.89,0,0,0-1.58.18,7.53,7.53,0,0,0-2.37.7,9.57,9.57,0,0,1-1.87.92c.83,0,.76-.47-.16,0s1.13,0,.23,0c-.48,0-1,0-1.48,0a9.6,9.6,0,0,0-5.85,2.39c-2,1.61-2.55,4.94-1.93,7.29,1.31,5,7.5,7.6,11.87,4.62a7.73,7.73,0,0,0,3.72-6.48,7.4,7.4,0,0,0-3.72-6.47l1.86,1.84,1,3.79c-.32,2.66-1.51,4.34-3.59,5h-4l.47.11-3.31-1.93.3.35-2.2-5.31,0,.49,1-3.79.61-.79,3.31-1.92-.36.05,8.47,3.44-.18-.25.76,5.78.1-.35-1.93,3.31.28-.26-3.31,1.93a5.82,5.82,0,0,0,1.08-.32c3.69-1.32,6.55-5.18,5.24-9.23-1.18-3.63-5.27-6.65-9.23-5.24Z" transform="translate(-239.2 -199.43)" style="fill:#ffb000"/><path d="M648.07,213.94a8.71,8.71,0,0,0,5.46.05,2.6,2.6,0,0,0,1.49-1.15,2.56,2.56,0,0,0,.26-1.93,2.6,2.6,0,0,0-1.15-1.49,2.51,2.51,0,0,0-1.93-.25,24.25,24.25,0,0,0-5.44,2.53,2.54,2.54,0,0,0-1,1.2,2.41,2.41,0,0,0-.13,1.63,2.57,2.57,0,0,0,2.41,1.83,6,6,0,0,0,3.46-1.18,13.24,13.24,0,0,1,2.21-1.43l-.59.25.25-.09a2.67,2.67,0,0,0,1.49-1.15,2.62,2.62,0,0,0,.3-1.6,2.39,2.39,0,0,0-.69-1.43,2.46,2.46,0,0,0-1.77-.73,13.11,13.11,0,0,0-5.47,1.59,2.52,2.52,0,0,0-1.15,1.49,2.5,2.5,0,0,0,1.74,3.08,2.7,2.7,0,0,0,1.93-.25,9.55,9.55,0,0,1,1-.49l-.6.25a10.14,10.14,0,0,1,2.59-.7l-.66.09q.3,0,.6-.06l-.66-4.92a9.21,9.21,0,0,0-2.37,1.28,8.7,8.7,0,0,1-1.76,1.11l.6-.25a3.13,3.13,0,0,1-.74.21l.67-.09a2.75,2.75,0,0,1-.4,0l1.26,4.66a21.46,21.46,0,0,1,3.11-1.64l-.59.25c.57-.24,1.14-.45,1.73-.64l-1.33-4.82a7.65,7.65,0,0,1-1.17.27l.67-.09a6.6,6.6,0,0,1-1.72,0l.67.09a6.72,6.72,0,0,1-1.25-.31,2.49,2.49,0,0,0-3.07,1.75,2.48,2.48,0,0,0,.25,1.92,2.75,2.75,0,0,0,1.49,1.15Z" transform="translate(-239.2 -199.43)" style="fill:#ffb000"/><path d="M680.16,208.2a6.71,6.71,0,0,0-.81.49,9.28,9.28,0,0,0-1.2.95,5.87,5.87,0,0,0-.63.77,1.83,1.83,0,0,0-.23.38,3.7,3.7,0,0,0-.34.91,5.27,5.27,0,0,0-.1.8,4.7,4.7,0,0,0,.1.83.85.85,0,0,0,0,.17,5.88,5.88,0,0,0,.3.73,2.46,2.46,0,0,0,.6.76,3.55,3.55,0,0,0,1.34.78,4.77,4.77,0,0,0,1.07.16,6.47,6.47,0,0,0,.88,0,6,6,0,0,0,1-.14,4.17,4.17,0,0,0,.95-.37,3.62,3.62,0,0,0,.81-.58,4,4,0,0,0,.61-.75,4.38,4.38,0,0,0,.41-.88,1.46,1.46,0,0,0,.12-.39,5.35,5.35,0,0,0,.11-1,1.28,1.28,0,0,0,0-.19,7.72,7.72,0,0,0-.12-.82,4.4,4.4,0,0,0-.34-.9,1.35,1.35,0,0,0-.19-.33,5.83,5.83,0,0,0-.57-.74,5.35,5.35,0,0,0-.76-.61,2.9,2.9,0,0,0-.29-.19,5.52,5.52,0,0,0-.9-.38,5.61,5.61,0,0,0-1-.16,2.17,2.17,0,0,0-.36,0,4.35,4.35,0,0,0-1.84.49,4.88,4.88,0,0,0-.78.57,2.13,2.13,0,0,0-.26.26,4.91,4.91,0,0,0-1,1.7,3.76,3.76,0,0,0-.12.67,2.61,2.61,0,0,0-.06.68,4.2,4.2,0,0,0,.53,1.9,2.62,2.62,0,0,0,1.5,1.15,1.85,1.85,0,0,0,1,0,1.82,1.82,0,0,0,.93-.29,2.5,2.5,0,0,0,1.15-1.5,2.62,2.62,0,0,0-.25-1.92l-.08-.15.26.6a1.43,1.43,0,0,1-.11-.39l.09.66a1.69,1.69,0,0,1,0-.45l-.09.67a2,2,0,0,1,.14-.48l-.26.6a1.9,1.9,0,0,1,.26-.43l-.39.51a1.62,1.62,0,0,1,.32-.32l-.51.39a2,2,0,0,1,.32-.18l-.6.25a1.55,1.55,0,0,1,.42-.12l-.67.09a2.26,2.26,0,0,1,.45,0l-.67-.09a1.83,1.83,0,0,1,.47.14l-.59-.26a2.67,2.67,0,0,1,.43.25l-.51-.39a2.28,2.28,0,0,1,.38.38l-.39-.5a2,2,0,0,1,.25.43l-.25-.6a1.86,1.86,0,0,1,.1.39l-.09-.66a1.48,1.48,0,0,1,0,.47l.09-.66a1.86,1.86,0,0,1-.13.46l.26-.6a2.46,2.46,0,0,1-.19.32l.39-.5a1.67,1.67,0,0,1-.23.23l.5-.39a1.23,1.23,0,0,1-.31.19l.6-.26a1.93,1.93,0,0,1-.47.13l.67-.09a4.83,4.83,0,0,1-1.26,0l.66.09a1.57,1.57,0,0,1-.31-.08l.6.25a.69.69,0,0,1-.17-.1l.5.39-.12-.13.39.51a2,2,0,0,1-.11-.2l.25.6a1.18,1.18,0,0,1-.06-.27l.08.67a2.53,2.53,0,0,1,0-.28l-.09.66a1.64,1.64,0,0,1,.07-.28l-.25.6a2.14,2.14,0,0,1,.25-.41l-.39.51a3.86,3.86,0,0,1,.69-.65l-.51.39a6.73,6.73,0,0,1,1.06-.66,2,2,0,0,0,.7-.65,1.89,1.89,0,0,0,.45-.85,2,2,0,0,0,0-1,1.8,1.8,0,0,0-.3-.93,2.46,2.46,0,0,0-1.49-1.15l-.67-.09a2.43,2.43,0,0,0-1.26.34Z" transform="translate(-239.2 -199.43)" style="fill:#ffb000"/><path d="M695.92,221.91a2,2,0,0,0-.69-.54c-.17-.09-.44-.2-.62-.27l-.08,0a3.49,3.49,0,0,0-.78-.11,2.77,2.77,0,0,0-.91.11l-.06,0a4.39,4.39,0,0,0-.63.26l-.16.09a6.59,6.59,0,0,0-.59.47,5.2,5.2,0,0,0-.46.59l-.08.13a4.86,4.86,0,0,0-.32.74,1.67,1.67,0,0,0-.08.3,4.77,4.77,0,0,0-.1.95,5.7,5.7,0,0,0,.13.91,4.14,4.14,0,0,0,.34.87c0,.08.08.17.13.25a1,1,0,0,0,.08.11,5.66,5.66,0,0,0,.47.6,5,5,0,0,0,.7.57,1.35,1.35,0,0,0,.26.15,3.87,3.87,0,0,0,.85.34,6.31,6.31,0,0,0,.76.1h.16a10.4,10.4,0,0,0,.9-.12,4.62,4.62,0,0,0,.87-.34l.24-.14a5.84,5.84,0,0,0,.7-.57,3.8,3.8,0,0,0,.9-1.54.5.5,0,0,0,0-.13,6.2,6.2,0,0,0,.11-.77v-.15a6.8,6.8,0,0,0-.11-.77,3.69,3.69,0,0,0-.31-.8,1.36,1.36,0,0,0-.13-.24,5,5,0,0,0-.54-.67l-.09-.08a7.05,7.05,0,0,0-.61-.47.94.94,0,0,0-.22-.12,5.09,5.09,0,0,0-.84-.34,5.85,5.85,0,0,0-.89-.14,1.38,1.38,0,0,0-.29,0l-.46.06a3.65,3.65,0,0,0-.46.07,3.86,3.86,0,0,0-.87.35.57.57,0,0,0-.13.08,5.5,5.5,0,0,0-.61.47,3.9,3.9,0,0,0-.59.71,3.52,3.52,0,0,0-.56,1.78,2.86,2.86,0,0,0,.1.92s0,0,0,.06c.07.2.19.47.28.66a.57.57,0,0,0,.08.13,1.85,1.85,0,0,0,.65.71,1.78,1.78,0,0,0,.85.44,1.86,1.86,0,0,0,1,0,1.9,1.9,0,0,0,.93-.3,2.48,2.48,0,0,0,1.15-1.49l.09-.67a2.43,2.43,0,0,0-.34-1.26,1,1,0,0,1-.1-.17l.26.6a.83.83,0,0,1,0-.15l.09.67a.81.81,0,0,1,0-.22l-.09.66a.83.83,0,0,1,.06-.21l-.25.6a1.11,1.11,0,0,1,.17-.3l-.39.51a1.36,1.36,0,0,1,.24-.24l-.5.39a2.26,2.26,0,0,1,.26-.16l-.59.26a1.58,1.58,0,0,1,.31-.09l-.67.09a1.48,1.48,0,0,1,.42,0l-.66-.09a1.62,1.62,0,0,1,.43.12l-.59-.25a2.79,2.79,0,0,1,.33.19l-.51-.39a1.36,1.36,0,0,1,.24.24l-.39-.5a1.35,1.35,0,0,1,.15.26l-.25-.6a.9.9,0,0,1,.07.27l-.09-.66a1.13,1.13,0,0,1,0,.26l.09-.66a1.29,1.29,0,0,1-.08.26l.26-.6a2.4,2.4,0,0,1-.16.27l.39-.51a1.88,1.88,0,0,1-.25.24l.51-.39a1.34,1.34,0,0,1-.31.17l.6-.25a1.35,1.35,0,0,1-.33.09l.66-.09h-.31l.66.09-.3-.09.6.25a.92.92,0,0,1-.27-.16l.5.4a1.44,1.44,0,0,1-.27-.28l.39.51a1.72,1.72,0,0,1-.22-.37l.26.6a1.48,1.48,0,0,1-.12-.41l.09.66a2.54,2.54,0,0,1,0-.39l-.09.67a1.89,1.89,0,0,1,.09-.34l-.25.6a1.09,1.09,0,0,1,.14-.23l-.4.5a1.21,1.21,0,0,1,.16-.16l-.5.39.15-.09-.6.25.2-.05-.66.09h.17l-.66-.09.16,0-.6-.25.12.07-.51-.39.1.09a1.85,1.85,0,0,0,.8.52,2.32,2.32,0,0,0,1.93,0,1.92,1.92,0,0,0,.8-.52,2.51,2.51,0,0,0,.73-1.77l-.09-.66a2.5,2.5,0,0,0-.64-1.1Z" transform="translate(-239.2 -199.43)" style="fill:#ffb000"/><path d="M696.85,267.76c-.88-2.2-2.23-4.08-4.63-4.75a7.36,7.36,0,0,0-5.88.78,7.71,7.71,0,0,0-2.47,10.46,8.39,8.39,0,0,0,15.59-4.62l-11.78,1.59q-.63-2.36,3.73-1.5c2.15-1.91,3.52-2.07,4.1-.46a6.09,6.09,0,0,0-5.79-4.41c-2.87.13-4.73,1.84-5.78,4.41-2.21,5.41,3.33,10.26,8.4,10l-1.6-11.79a3,3,0,0,1,2.76.52,7.81,7.81,0,0,1-.75-.87c-3.71-4.65-12,.38-10,5.84,1.58,4.32,4.64,6.51,9.14,7.09v-12l-.47,0,3,.82-.39-.26-1.43,11a9.64,9.64,0,0,0,7.51-6.57,9.91,9.91,0,0,0-.11-5.32c-.13-.52-.33-1-.47-1.55-.06-.26-.41-2-.35-1.46-.3-2.46-1.26-4.46-3.69-5.49a5.94,5.94,0,0,0-6.55,1.24,9,9,0,0,0-2.17,3.88c-.16.7-.19.25.11,0-1.22,1.14.92-.77-.38.33-2.41,2-2.25,6.42,0,8.48a6.15,6.15,0,0,0,8.48,0,10.51,10.51,0,0,0,2.26-2.75,13.28,13.28,0,0,0,.82-1.9c.48-1.3.63-1-.63.47l-10.25-4.24a34.76,34.76,0,0,0,1.07,5.65c.1.28.18.55.25.83.2.81.21.36,0-1.34a2.94,2.94,0,0,1,2-2.09c-.37.11-.74.2-1.12.28a6,6,0,0,0-4.3,5,6.1,6.1,0,0,0,2.87,6,7.8,7.8,0,0,0,3.88,1.12c3.14.31,6.14-3,6-6-.16-3.59-2.65-5.57-6-6,1.43.19,2,.49,2.44,1.72l-10,5.84a9.52,9.52,0,0,0,9.66,3.43c2.93-.56,4.67-3.84,4.3-6.58a5.94,5.94,0,0,0-5.89-5.2q-3.92,0,3.17,5.19H683.94c1.16,4.24,5.35,7.31,9.82,6.14,5-1.31,6.22-6,5.49-10.56-.47-2.93-3.92-4.65-6.58-4.29a6,6,0,0,0-5.21,5.89l.13-.65q.84-2.85,3.48-2.13c1.35-.51,2.24-.14,2.69,1.12a3.08,3.08,0,0,1,1,1.86l-.82,3-1.08,1.06-3,.81-1.94-.53-2.76-3.59.13.34c1.16,2.91,4.07,5.26,7.39,4.19,2.82-.91,5.42-4.26,4.19-7.38Z" transform="translate(-239.2 -199.43)" style="fill:#ffb000"/><path d="M688.49,268.52l3.27-6.34L693.4,259a12.44,12.44,0,0,0,1.32-3.18l-4.57.6c0,.06.34.66.18.27.11.27.14.55.24.82s0,.16,0-.07c0,.13,0,.25,0,.37a8,8,0,0,1,0,.85l4.65-1.26c.15.32-.13-.4-.13-.39-.07-.21-.13-.42-.19-.64s-.1-.43-.14-.64c-.17-.77,0,.4-.07-.39a11.63,11.63,0,0,1,0-1.32,7,7,0,0,1,.06-.79c-.06.41.08-.35.08-.38a2.5,2.5,0,1,0-4.82-1.33,13.56,13.56,0,0,0,.93,8.4,2.5,2.5,0,0,0,2.82,1.15,2.63,2.63,0,0,0,1.84-2.41,8.07,8.07,0,0,0-1.1-4.77c-1-1.75-4.16-1.57-4.57.6,0,.24-.11.47-.18.71-.22.68.19-.33-.14.31-.24.45-.47.9-.7,1.36l-1.57,3L684.18,266a2.5,2.5,0,1,0,4.31,2.52Z" transform="translate(-239.2 -199.43)" style="fill:#ffb000"/><polygon points="117.64 318.56 322.74 255.36 322.74 381.65 316.42 385.48 117.64 318.56" style="fill:#e4e4e4"/><polygon points="103.05 429.57 103.05 539.55 313.95 618.73 315.48 386.4 223.17 475.87 103.05 429.57" style="fill:#e4e4e4"/><polygon points="326.32 395.19 325.8 626.76 544.36 543.27 544.36 422.51 410.57 476.63 326.32 395.19" style="fill:#e4e4e4"/></g><g id="Layer_2" data-name="Layer 2"><polygon points="630.65 391.61 627.02 392.93 626.87 392.99 540.27 426.28 409.29 476.63 316.42 385.48 222.4 476.63 93.54 425.82 4.86 390.85 99.84 312.57 316.42 245.31 534.14 312.57 630.65 391.61" style="fill:none;stroke:#231f20;stroke-miterlimit:10;stroke-width:5px"/><polyline points="66.83 405.14 23.93 388.46 42.83 372.29" style="fill:none;stroke:#231f20;stroke-miterlimit:10;stroke-width:5px"/><line x1="48.78" y1="364.97" x2="56.78" y2="358.34" style="fill:none;stroke:#231f20;stroke-miterlimit:10;stroke-width:5px"/><line x1="62.06" y1="354.08" x2="66.83" y2="349.65" style="fill:none;stroke:#231f20;stroke-miterlimit:10;stroke-width:5px"/><line x1="72.1" y1="345.06" x2="74.31" y2="342.34" style="fill:none;stroke:#231f20;stroke-miterlimit:10;stroke-width:5px"/><line x1="382.48" y1="433.74" x2="388.1" y2="440.12" style="fill:none;stroke:#231f20;stroke-miterlimit:10;stroke-width:5px"/><polyline points="392.95 445.23 411.34 463.1 457.29 445.23" style="fill:none;stroke:#231f20;stroke-miterlimit:10;stroke-width:5px"/><line x1="341.12" y1="489.14" x2="410.57" y2="569.31" style="fill:none;stroke:#231f20;stroke-miterlimit:10;stroke-width:5px"/><line x1="341.12" y1="516.97" x2="373.8" y2="554.76" style="fill:none;stroke:#231f20;stroke-miterlimit:10;stroke-width:5px"/><line x1="306.91" y1="544.55" x2="257.12" y2="588.72" style="fill:none;stroke:#231f20;stroke-miterlimit:10;stroke-width:5px"/><line x1="298.23" y1="566.63" x2="273.97" y2="588.72" style="fill:none;stroke:#231f20;stroke-miterlimit:10;stroke-width:5px"/><line x1="148.53" y1="268.63" x2="197.89" y2="255.36" style="fill:none;stroke:#231f20;stroke-miterlimit:10;stroke-width:3px"/><line x1="153.63" y1="187.95" x2="197.89" y2="211.78" style="fill:none;stroke:#231f20;stroke-miterlimit:10;stroke-width:3px"/><line x1="213.89" y1="148.8" x2="228.87" y2="196.46" style="fill:none;stroke:#231f20;stroke-miterlimit:10;stroke-width:3px"/><line x1="426.31" y1="145.74" x2="411.68" y2="193.06" style="fill:none;stroke:#231f20;stroke-miterlimit:10;stroke-width:3px"/><line x1="485.55" y1="185.23" x2="441.97" y2="208.72" style="fill:none;stroke:#231f20;stroke-miterlimit:10;stroke-width:3px"/><line x1="441.97" y1="250.93" x2="489.97" y2="265.57" style="fill:none;stroke:#231f20;stroke-miterlimit:10;stroke-width:3px"/><path d="M574.28,530l-5.79-4.76" transform="translate(-239.2 -199.43)" style="fill:none;stroke:#231f20;stroke-miterlimit:10;stroke-width:3px"/><path d="M557.6,513.68l-9.2-8.85" transform="translate(-239.2 -199.43)" style="fill:none;stroke:#231f20;stroke-miterlimit:10;stroke-width:3px"/><path d="M537.51,495.64,527,484.74" transform="translate(-239.2 -199.43)" style="fill:none;stroke:#231f20;stroke-miterlimit:10;stroke-width:3px"/><path d="M517.43,475.21,508.23,464" transform="translate(-239.2 -199.43)" style="fill:none;stroke:#231f20;stroke-miterlimit:10;stroke-width:3px"/><path d="M501.11,453a22.9,22.9,0,0,1-4.6-13.15" transform="translate(-239.2 -199.43)" style="fill:none;stroke:#231f20;stroke-miterlimit:10;stroke-width:3px"/><path d="M496.19,425.34a24.27,24.27,0,0,1,.32-7.4,24,24,0,0,1,2.62-7.09" transform="translate(-239.2 -199.43)" style="fill:none;stroke:#231f20;stroke-miterlimit:10;stroke-width:3px"/><path d="M505,399a49.54,49.54,0,0,1,9.06-11.42" transform="translate(-239.2 -199.43)" style="fill:none;stroke:#231f20;stroke-miterlimit:10;stroke-width:3px"/><path d="M524.15,381.13a32.2,32.2,0,0,1,7-4.51,32.86,32.86,0,0,1,7.66-2.56" transform="translate(-239.2 -199.43)" style="fill:none;stroke:#231f20;stroke-miterlimit:10;stroke-width:3px"/><path d="M552.23,372.7a23.28,23.28,0,0,1,14.51,4.94" transform="translate(-239.2 -199.43)" style="fill:none;stroke:#231f20;stroke-miterlimit:10;stroke-width:3px"/><path d="M574.7,386.87A19,19,0,0,1,578,401.68" transform="translate(-239.2 -199.43)" style="fill:none;stroke:#231f20;stroke-miterlimit:10;stroke-width:3px"/><path d="M572.53,414.49a24.59,24.59,0,0,1-4.59,4.85,24.33,24.33,0,0,1-7.28,4" transform="translate(-239.2 -199.43)" style="fill:none;stroke:#231f20;stroke-miterlimit:10;stroke-width:3px"/><path d="M547.13,425.72a18.81,18.81,0,0,1-6.94-1.53,19,19,0,0,1-6.3-4.42" transform="translate(-239.2 -199.43)" style="fill:none;stroke:#231f20;stroke-miterlimit:10;stroke-width:3px"/><path d="M525.64,409.85a27.74,27.74,0,0,1-2.6-7.06,28.14,28.14,0,0,1-.59-8" transform="translate(-239.2 -199.43)" style="fill:none;stroke:#231f20;stroke-miterlimit:10;stroke-width:3px"/><path d="M526.7,383.09a31.19,31.19,0,0,1,3.07-16.52" transform="translate(-239.2 -199.43)" style="fill:none;stroke:#231f20;stroke-miterlimit:10;stroke-width:3px"/><path d="M531.72,355.3c.49-2.82,1.15-5.87,2-9.11.76-2.76,1.6-5.32,2.46-7.66" transform="translate(-239.2 -199.43)" style="fill:none;stroke:#231f20;stroke-miterlimit:10;stroke-width:3px"/><path d="M539.21,326.62q1.89-3.18,4-6.47,2.22-3.47,4.43-6.64" transform="translate(-239.2 -199.43)" style="fill:none;stroke:#231f20;stroke-miterlimit:10;stroke-width:3px"/><path d="M554.45,302.45c1.86-1.71,3.74-3.44,5.61-5.19s3.83-3.58,5.71-5.37" transform="translate(-239.2 -199.43)" style="fill:none;stroke:#231f20;stroke-miterlimit:10;stroke-width:3px"/><path d="M576.74,284.15a71.88,71.88,0,0,1,6.47-4.6c2.12-1.33,4.15-2.45,6-3.4" transform="translate(-239.2 -199.43)" style="fill:none;stroke:#231f20;stroke-miterlimit:10;stroke-width:3px"/><path d="M601.85,271.38l6.21-1.78,7.58-2.22" transform="translate(-239.2 -199.43)" style="fill:none;stroke:#231f20;stroke-miterlimit:10;stroke-width:3px"/><path d="M628.83,264a14.3,14.3,0,0,0,3.57-.89,14.08,14.08,0,0,0,3.71-2.18" transform="translate(-239.2 -199.43)" style="fill:none;stroke:#231f20;stroke-miterlimit:10;stroke-width:3px"/><path d="M635.47,243.81a19.35,19.35,0,0,0-.09,4.51,14.8,14.8,0,0,0,.6,3.15,15.12,15.12,0,0,0,2.38,4.34c1.15,1.53,1.26,1.24,3.75,3.91,2.18,2.35,2.53,3,4,3.92a7.8,7.8,0,0,0,3.06,1.19,13.77,13.77,0,0,0,3.66-.26c1.07-.15,1.94-.3,2.55-.42Z" transform="translate(-239.2 -199.43)" style="fill:#231f20;stroke:#231f20;stroke-miterlimit:10;stroke-width:0.5px"/><path d="M645.28,232.63a2.52,2.52,0,0,0-3.26-.3,11.79,11.79,0,0,0-1.36,1.18,10.3,10.3,0,0,0-1,1.18,2.51,2.51,0,0,0,.25,3.27L661.82,260a2.51,2.51,0,0,0,2.95.46l1.56-.81a2.56,2.56,0,0,0,1.08-1.08l.25-.49a2.52,2.52,0,0,0-.44-2.91Z" transform="translate(-239.2 -199.43)" style="fill:#231f20;stroke:#231f20;stroke-miterlimit:10;stroke-width:0.5px"/><path d="M655.6,223.12a2.51,2.51,0,0,0-3.26-.31A11,11,0,0,0,651,224a11.23,11.23,0,0,0-1,1.18,2.52,2.52,0,0,0,.24,3.27l21.92,22.07a2.5,2.5,0,0,0,3,.45l1.56-.81a2.56,2.56,0,0,0,1.08-1.08l.25-.48a2.54,2.54,0,0,0-.44-2.92Z" transform="translate(-239.2 -199.43)" style="fill:#231f20;stroke:#231f20;stroke-miterlimit:10;stroke-width:0.5px"/><path d="M681.59,239.52a17.32,17.32,0,0,0,0-4.19,12.48,12.48,0,0,0-.62-2.92,13.72,13.72,0,0,0-2.35-4c-1.13-1.41-1.23-1.14-3.66-3.59-2.13-2.14-2.48-2.78-3.91-3.58a7.55,7.55,0,0,0-3-1.06,13.05,13.05,0,0,0-3.52.29c-1,.15-1.87.31-2.46.43Z" transform="translate(-239.2 -199.43)" style="fill:#231f20;stroke:#231f20;stroke-miterlimit:10;stroke-width:0.5px"/><path d="M680.79,205.77a5.18,5.18,0,0,1,2.68,3.57,5.3,5.3,0,0,1-1.15,3.45,5.88,5.88,0,0,1-2.81,2.68,5.53,5.53,0,0,1-4.21-.26,5.22,5.22,0,0,1-3.07-2.93,5.29,5.29,0,0,1,.51-4.09,5.87,5.87,0,0,1,3.71-3.19A5.74,5.74,0,0,1,680.79,205.77Z" transform="translate(-239.2 -199.43)" style="fill:none;stroke:#231f20;stroke-miterlimit:10;stroke-width:3px"/><path d="M694,218.49a4.38,4.38,0,0,1,1.53,7,5.85,5.85,0,0,1-2.8,2.68,5.56,5.56,0,0,1-4.22-.26,5.26,5.26,0,0,1-3.06-2.94,5.18,5.18,0,0,1,.51-4.08,5.87,5.87,0,0,1,3.7-3.19A5.74,5.74,0,0,1,694,218.49Z" transform="translate(-239.2 -199.43)" style="fill:none;stroke:#231f20;stroke-miterlimit:10;stroke-width:3px"/><path d="M657.43,211.72c0,.63-1.56,1.15-2.56,1.54-2,.75-1.34.86-5.1,2.8-5.91,3.06-9.7,5-14.9,6-4.38.84-6.88.49-8.76-.76a10.53,10.53,0,0,1-2.22-2.13c-1.22-1.45-3-3.56-3.32-6.47-.47-4.53,3-7.91,3.66-8.6a10.57,10.57,0,0,1,4.34-2.72c3.09-1,5.81-.07,8.52.85,3.13,1.07,2.56,1.57,6.72,3.24,3,1.18,4.06,1.26,7.32,2.63,4.22,1.79,2.53,1.31,4.42,2.13a5.93,5.93,0,0,1,1.11.68C657.12,211.24,657.41,211.46,657.43,211.72Z" transform="translate(-239.2 -199.43)" style="fill:none;stroke:#231f20;stroke-miterlimit:10;stroke-width:3px"/><path d="M688.64,244c-.63,0-1.07,1.61-1.4,2.62-.66,2-.8,1.39-2.55,5.25-2.75,6.05-4.46,9.94-5.19,15.17-.61,4.43-.14,6.9,1.21,8.72a10.45,10.45,0,0,0,2.24,2.1c1.51,1.15,3.71,2.83,6.63,3,4.55.24,7.75-3.37,8.4-4.1a10.47,10.47,0,0,0,2.49-4.47c.8-3.13-.22-5.8-1.28-8.46-1.22-3.07-1.69-2.47-3.57-6.55-1.34-2.89-1.47-4-3-7.17a47.81,47.81,0,0,0-2.35-4.31,5.13,5.13,0,0,0-.74-1.07C689.14,244.3,688.89,244,688.64,244Z" transform="translate(-239.2 -199.43)" style="fill:none;stroke:#231f20;stroke-miterlimit:10;stroke-width:3px"/><polygon points="540.27 426.28 540.27 532.55 316.99 619.87 92.35 535.53 93.54 425.82 222.4 476.63 316.42 385.48 409.29 476.63 540.27 426.28" style="fill:none;stroke:#231f20;stroke-miterlimit:10;stroke-width:5px"/><polyline points="316.99 619.87 316.42 385.48 99.84 312.57" style="fill:none;stroke:#231f20;stroke-miterlimit:10;stroke-width:5px"/><line x1="534.14" y1="312.57" x2="316.42" y2="385.48" style="fill:none;stroke:#231f20;stroke-miterlimit:10;stroke-width:5px"/></g></svg>