<svg xmlns="http://www.w3.org/2000/svg" viewBox="0 0 670.38 351.87"><g id="Layer_1" data-name="Layer 1"><path d="M434.74,360.45l34.05,34a.07.07,0,0,0,.1,0L490.41,373l21.51-21.52a.07.07,0,0,0,0-.1l-32.83-32.83c-71.21-71.21-187.93-69.88-256,4.32-61.72,67.26-61.72,171.19,0,238.45,68.09,74.2,184.81,75.53,256,4.32l32.83-32.83a.07.07,0,0,0,0-.1L490.4,511.17l-21.51-21.52a.07.07,0,0,0-.1,0l-34.05,34a115.43,115.43,0,1,1,0-163.24ZM490.45,468a.07.07,0,0,0,0,.1l43,43a.07.07,0,0,0,.1,0l21.52-21.52L512,446.46ZM512,437.68l21.57-21.57,21.57-21.56L533.59,373a.07.07,0,0,0-.1,0L512,394.54l-21.53,21.54a.06.06,0,0,0,0,.08Z" transform="translate(-176.78 -266.14)" style="fill:#252525"/><path d="M800.87,322.85c-68.09-74.2-184.81-75.53-256-4.32L512,351.36a.07.07,0,0,0,0,.1L533.54,373l0,0L512,394.54l-21.53,21.54,0,0-21.51-21.52a.07.07,0,0,0-.1,0L421.36,442a.07.07,0,0,0,0,.1l47.43,47.43a.07.07,0,0,0,.1,0L490.4,468l.05.05,43,43,0,.05L512,532.69a.07.07,0,0,0,0,.1l32.83,32.83c71.21,71.21,187.93,69.88,256-4.32C862.59,494,862.59,390.11,800.87,322.85ZM752.44,523.69a115.55,115.55,0,0,1-163.24,0l-81.57-81.57a.07.07,0,0,1,0-.1l25.91-25.91,21.57-21.56,34.09-34.1A115.43,115.43,0,0,1,752.44,523.69Z" transform="translate(-176.78 -266.14)" style="fill:#252525"/><polygon points="356.76 106.84 335.19 128.4 313.62 149.97 292.06 128.4 313.63 106.84 335.19 85.27 356.76 106.84" style="fill:none"/><polygon points="356.76 245.03 335.19 266.6 313.62 245.03 292.06 223.46 313.62 201.89 356.76 245.03" style="fill:none"/></g></svg>