<svg version="1.1" xmlns="http://www.w3.org/2000/svg" xmlns:xlink="http://www.w3.org/1999/xlink" viewBox="0 0 172 172"><g fill="none" fill-rule="nonzero" stroke="none" stroke-width="1" stroke-linecap="butt" stroke-linejoin="miter" stroke-miterlimit="10" stroke-dasharray="" stroke-dashoffset="0" font-family="none" font-weight="none" font-size="none" text-anchor="none" style="mix-blend-mode: normal"><path d="M0,172v-172h172v172z" fill="none"></path><g fill="#000000"><path d="M43.70547,18.40938l59.49453,59.48334l15.35234,-15.35235c-20.97827,-12.728 -49.07545,-29.80249 -61.71172,-37.47943l-8.46563,-5.12865c-1.4964,-0.9116 -3.0986,-1.40252 -4.66953,-1.52292zM34.62396,25.53125c-0.1204,0.6536 -0.22396,1.31042 -0.22396,2.01563v117.55573c0,0.49307 0.09917,0.952 0.16797,1.42214l60.52474,-60.52474zM128.64167,68.66562l-17.33438,17.33438l17.03204,17.03203c9.02427,-5.4696 15.27449,-9.26766 15.96823,-9.6862c3.06733,-1.8748 4.79952,-4.70348 4.74792,-7.79375c-0.04587,-3.03293 -1.77859,-5.74462 -4.72552,-7.41302c-0.65933,-0.3784 -6.82455,-4.1013 -15.68828,-9.47344zM103.2,94.10729l-59.31536,59.31537c1.1524,-0.20067 2.30337,-0.54431 3.40417,-1.20938c1.52507,-0.9288 42.72453,-25.92479 70.9612,-43.05599z"></path></g></g></svg>