<svg xmlns="http://www.w3.org/2000/svg" viewBox="0 0 1866.45 1363"><g id="Layer_1" data-name="Layer 1"><circle cx="402.33" cy="1284.73" r="58.39" transform="translate(-597.01 -194.16) rotate(-13.08)" style="fill:#f7cc7f"/><path d="M450.6,1314.81a56.87,56.87,0,1,1-18.19-78.35A56.93,56.93,0,0,1,450.6,1314.81Z" transform="translate(-316.78 -318.5)" style="fill:#f7cc7f"/><path d="M427.12,1245.46a46.44,46.44,0,1,1-64,14.86A46.44,46.44,0,0,1,427.12,1245.46Z" transform="translate(-316.78 -318.5)" style="fill:#fff"/><circle cx="402.35" cy="1284.75" r="44.03" transform="translate(-1242.84 1184.8) rotate(-81.95)" style="fill:#fff"/><path d="M380.21,1315.84l-4.16,6.69a2.35,2.35,0,1,0,4,2.49l4.17-6.69a2.35,2.35,0,1,0-4-2.49Z" transform="translate(-316.78 -318.5)" style="fill:#f7cc7f"/><path d="M432.7,1303.65a2.35,2.35,0,0,0,.75,3.24l6.69,4.17a2.35,2.35,0,1,0,2.48-4l-6.69-4.17A2.35,2.35,0,0,0,432.7,1303.65Z" transform="translate(-316.78 -318.5)" style="fill:#f7cc7f"/><path d="M424.68,1244.48l-4.17,6.69a2.34,2.34,0,1,0,4,2.48l4.17-6.69a2.34,2.34,0,1,0-4-2.48Z" transform="translate(-316.78 -318.5)" style="fill:#f7cc7f"/><path d="M361.33,1259.19a2.36,2.36,0,0,0,.76,3.24l6.69,4.16a2.34,2.34,0,0,0,2.48-4l-6.69-4.17A2.35,2.35,0,0,0,361.33,1259.19Z" transform="translate(-316.78 -318.5)" style="fill:#f7cc7f"/><rect x="359.85" y="1220.2" width="13.35" height="11.99" rx="1.37" transform="matrix(0.85, -0.52, 0.52, 0.85, -900.67, 50.6)" style="fill:#f7cc7f"/><path d="M329.21,1272h10.6a1.37,1.37,0,0,1,1.37,1.37v9.24a1.37,1.37,0,0,1-1.37,1.37h-10.6a1.38,1.38,0,0,1-1.38-1.38v-9.24A1.37,1.37,0,0,1,329.21,1272Z" transform="matrix(0.09, -1, 1, 0.09, -1285.21, 1177.6)" style="fill:#f7cc7f"/><rect x="331.72" y="1240.01" width="16.25" height="9.33" rx="1.34" transform="translate(-1213.09 556.55) rotate(-58.08)" style="fill:#f7cc7f"/><path d="M344.18,1252.81a14.61,14.61,0,1,1,4.88-7.82l3.06,1.9a18.07,18.07,0,1,0-4.87,7.83Z" transform="translate(-316.78 -318.5)" style="fill:#f7cc7f"/><path d="M351.78,1253.24q1.26-2,2.65-3.9l-8.15-5.07-4,6.36,8.05,5C350.81,1254.84,351.29,1254,351.78,1253.24Z" transform="translate(-316.78 -318.5)" style="fill:#f7cc7f"/><path d="M404.56,1281a4.29,4.29,0,1,1-5.9,1.38A4.28,4.28,0,0,1,404.56,1281Z" transform="translate(-316.78 -318.5)" style="fill:#fae0b2"/><path d="M385.77,1253.48,403.63,1284a1.61,1.61,0,0,1-2.78,1.63C400.78,1285.47,401.45,1286.89,385.77,1253.48Z" transform="translate(-316.78 -318.5)" style="fill:#fae0b2"/><path d="M437.62,1281l-34.92,5.32a1.61,1.61,0,1,1-.49-3.18C402.35,1283.11,400.78,1283.21,437.62,1281Z" transform="translate(-316.78 -318.5)" style="fill:#fae0b2"/><path d="M403.22,1283.19a1.75,1.75,0,1,1-2.41.56A1.77,1.77,0,0,1,403.22,1283.19Z" transform="translate(-316.78 -318.5)" style="fill:#fae0b2"/><path d="M1990.58,1478.55a4,4,0,0,0,4.16.51c6.72-3.11,20-2.45,26.66-1.32l12.69,32.86c-4.19,5.33-13.56,14.72-20.63,16.94a4,4,0,0,0-2.74,3.18l-4.27,27.35a4,4,0,0,0,1.63,3.86c6.06,4.27,12.12,16.07,14.48,22.43l-22.11,27.42c-6.71-1-19.53-4.38-25-9.4a4,4,0,0,0-4.11-.78l-25.83,10a4,4,0,0,0-2.53,3.34c-.66,7.38-7.86,18.53-12.18,23.76l-34.8-5.44c-2.52-6.3-6-19.11-4.36-26.34a4,4,0,0,0-1.38-4l-21.56-17.38a4,4,0,0,0-4.16-.51c-6.72,3.11-20,2.45-26.66,1.32l-12.69-32.86c4.19-5.33,13.56-14.72,20.63-16.94a4,4,0,0,0,2.74-3.17l4.27-27.36a4,4,0,0,0-1.63-3.86c-6.06-4.26-12.11-16.07-14.48-22.43l22.11-27.42c6.71,1,19.53,4.38,25,9.4a4,4,0,0,0,4.12.78l25.82-10a4,4,0,0,0,2.53-3.35c.66-7.38,7.86-18.53,12.18-23.76l34.8,5.44c2.52,6.3,6,19.11,4.36,26.34a4,4,0,0,0,1.38,4Zm-73.43,21.15a34.69,34.69,0,1,0,44.85,19.86A34.67,34.67,0,0,0,1917.15,1499.7Zm-8-20.76a56.94,56.94,0,1,0,73.63,32.6A56.94,56.94,0,0,0,1909.13,1478.94Z" transform="translate(-316.78 -318.5)" style="fill:#02ccc0"/><path d="M2158,1357.71a4.06,4.06,0,0,0,3,3c7.34,1.73,17.54,10.59,22.19,15.7l-10.48,34.29c-6.71,1.63-20.12,3.27-27.17.61a4,4,0,0,0-4.19.82l-20.62,19.22a4.06,4.06,0,0,0-1.11,4.12c2.17,7.23-.4,20.49-2.5,27.07l-34.94,8.06c-4.77-5-12.89-15.78-14.11-23.22a4.06,4.06,0,0,0-2.81-3.22l-27-8.24a4.07,4.07,0,0,0-4.13,1.09c-5.17,5.49-17.94,9.9-24.69,11.37l-24.45-26.22c1.94-6.63,7.22-19.06,13.06-23.84a4,4,0,0,0,1.38-4l-6.34-27.46a4.07,4.07,0,0,0-3-3c-7.34-1.73-17.54-10.59-22.19-15.69l10.48-34.29c6.71-1.64,20.12-3.28,27.18-.61a4.06,4.06,0,0,0,4.18-.82l20.62-19.23a4,4,0,0,0,1.11-4.12c-2.17-7.22.4-20.48,2.5-27.06l34.94-8.07c4.77,5,12.9,15.79,14.11,23.23a4.06,4.06,0,0,0,2.81,3.22l27,8.24a4,4,0,0,0,4.12-1.1c5.17-5.49,17.94-9.89,24.69-11.37l24.45,26.23c-1.94,6.63-7.22,19.06-13.06,23.83a4.06,4.06,0,0,0-1.38,4Zm-72.1-29.21a35.31,35.31,0,1,0,23.45,44.1A35.33,35.33,0,0,0,2085.92,1328.5Zm6.62-21.66a58,58,0,1,0,38.49,72.38A58,58,0,0,0,2092.54,1306.84Z" transform="translate(-316.78 -318.5)" style="fill:#ff5b7e"/><path d="M1822.91,1098.14a7.57,7.57,0,0,0,6.62-4.49c5.76-12.93,25.64-28.63,36.68-35.42l59.54,31.29c.67,12.94-1,38.22-8.37,50.29a7.61,7.61,0,0,0,.06,8l28.23,44.7a7.61,7.61,0,0,0,7.21,3.49c14.07-1.48,37.61,7.89,49,14l2.67,67.21c-10.86,7-33.59,18.25-47.73,17.9a7.57,7.57,0,0,0-6.9,4l-24.6,46.8a7.61,7.61,0,0,0,.58,8c8.31,11.44,12,36.51,12.33,49.46l-56.86,35.92c-11.54-5.89-32.61-20-39.37-32.39a7.58,7.58,0,0,0-7-4l-52.83,2.1a7.59,7.59,0,0,0-6.63,4.49c-5.75,12.93-25.64,28.63-36.67,35.42l-59.54-31.29c-.67-12.94,1-38.22,8.37-50.29a7.61,7.61,0,0,0-.06-8l-28.24-44.7a7.57,7.57,0,0,0-7.2-3.49c-14.07,1.48-37.61-7.89-49-14l-2.68-67.21c10.87-7,33.59-18.25,47.74-17.9a7.57,7.57,0,0,0,6.9-4l24.59-46.8a7.59,7.59,0,0,0-.57-8c-8.32-11.44-12-36.51-12.34-49.46l56.87-35.92c11.54,5.89,32.6,20,39.37,32.39a7.58,7.58,0,0,0,7,4Zm-79,122.69a66.24,66.24,0,1,0,89.45-27.82A66.24,66.24,0,0,0,1743.92,1220.83Zm-37.61-19.76a108.72,108.72,0,1,0,146.83-45.67A108.73,108.73,0,0,0,1706.31,1201.07Z" transform="translate(-316.78 -318.5)" style="fill:#feb546"/><path d="M454.58,1606.64s-2.34,24.76-8.35,29.31-14,21.37-10,30.46a10.18,10.18,0,0,0,6.61,5.4c8.45,2.71,17.43-1.85,21-10.27a54.1,54.1,0,0,0,4.13-18.88c.9-20.12,6.91-30.35,6.91-30.35Z" transform="translate(-316.78 -318.5)" style="fill:#ffc0bb"/><path d="M546.93,1616.78s1.9,25,.36,33.1c-.82,4.35-5.41,13.3-3.31,17.39s4.51,5.12,4.51,5.12l54.52.91c3,0,1-1.94-1.39-3.77-3.92-3-7.08-5-19.6-11.29-.82-.41-3.79-2.38-4.86-3.06a38.36,38.36,0,0,1-7.8-7.17c-3.91-4.54-4.26-26.54-4.26-26.54Z" transform="translate(-316.78 -318.5)" style="fill:#ffc0bb"/><path d="M589.54,1284.67s6.87,40.56,2.36,67.16-26.14,273.11-26.14,273.11l-24,1.41s-5-103-4.13-117.3,8-38.28,8-38.28l-2.39-83.14,30.34-109.22Z" transform="translate(-316.78 -318.5)" style="fill:#355389"/><path d="M518.88,1276.13s-18.93,29.67-23.44,54.22,3.31,100-5.36,132.16c-4.69,17.42-22.48,44.31-25.19,66.81s-13.31,81.45-13.31,81.45l24,5,55.85-147.21,43.81-133.06,11.22-68.53Z" transform="translate(-316.78 -318.5)" style="fill:#466eb6"/><path d="M465.48,1657.11c-13.1,2.48-21.81-5.49-26.34-11.46-3.33,6.76-5.37,15.2-2.93,20.76,2.16,4.9,8,6.23,13,6.42a13.94,13.94,0,0,0,12.75-7.41A46.19,46.19,0,0,0,465.48,1657.11Z" transform="translate(-316.78 -318.5)" style="fill:#3c8f7c"/><path d="M577.15,1655.18c-14.42,3.85-25.07,1.23-31-1.27-1.53,4.53-3.57,10.22-2.49,13.51,1.32,4,3.21,5.25,4.87,5.3,13.17.36,48.24.52,58.28.65a1.71,1.71,0,0,0,1.28-2.8C605.56,1667.47,578.22,1655.86,577.15,1655.18Z" transform="translate(-316.78 -318.5)" style="fill:#3c8f7c"/><path d="M591.83,1062.93c-4.26-27.76-29.38-47.73-55.65-34.26-5.9,3-13.9,9.18-18,14.42-11.23,14.4-14,32.25-25.84,46.1-10.26,11.94-37.63,9.69-50.42,18.88s-21.74,25.65-21.74,45.34c0,22,5,45.42,22,59.34s41.33,17.4,62.55,11.5,39.43-20.37,52.54-38.07,22.37-37.12,28.9-58.15C593.52,1104.54,594.58,1080.87,591.83,1062.93Z" transform="translate(-316.78 -318.5)" style="fill:#184655"/><path d="M495.71,1100.59s-32.25-57.56-40.1-69.8-28.28-60.85-29-62.77,14.07-24.92,10.77-25.71-7,12.13-10.49,10.59-13.82-32.65-15.83-31.1c-3.76,2.88,5.55,19.29,3.54,20.32s-8.07-18-12-17.49,7.49,17.49,6.39,19-13-14.46-15.11-11.06c-1.16,1.85,10.91,13.93,8.59,15.06S389.4,941,388.26,943.2s9.93,5.33,13.24,11.39,8.94,8.68,11.28,19.9,5.84,51.84,17.82,72.1,38.34,65.12,38.34,65.12Z" transform="translate(-316.78 -318.5)" style="fill:#ffc0bb"/><path d="M586.49,1168.94l-25.85,14.85s49.06,64.59,51.88,67.54l20.65-18.27Z" transform="translate(-316.78 -318.5)" style="fill:#ffc0bb"/><path d="M565,1130.34s20.07,3.82,45.07,65.75l-34.38,18.4-24.5-38Z" transform="translate(-316.78 -318.5)" style="fill:#ffc0bb"/><path d="M629.45,1134.42s-4.53-1.3-12,5.14c-9.24,8-9.77,69-7.34,90.41l2.43,21.36s18.85-6.62,23.28-29.56,6.14-82.57,6.14-82.57Z" transform="translate(-316.78 -318.5)" style="fill:#ffc0bb"/><path d="M532.9,1124s-25.27-1.61-35.27,9.27,22.18,96.89,24,110.74-14.92,41.43-14.92,41.43,69.55,32.52,86.51,21.32c0,0-2.72-110.92-4.53-120.81s-17-50.09-20.61-54S532.9,1124,532.9,1124Z" transform="translate(-316.78 -318.5)" style="fill:#f7cc7f"/><path d="M541.31,1090.31s-.13.74-.37,2c-1.12,6.06-5.46,26.17-8.39,31.7-3.54,6.69,12.12,28,27.2,25.4,4.49-.78-3.79-19.59-3.39-21.58.76-3.81,1.79-9,2.85-14.35.6-3,1.2-6.06,1.77-8.93l2.93-14.81Z" transform="translate(-316.78 -318.5)" style="fill:#ffc0bb"/><path d="M540.94,1092.32c.24-1.27.37-2,.37-2l22.6-.56L561,1104.56c-.57,2.86-1.17,5.89-1.76,8.88a21.13,21.13,0,0,1-10.79-5.4,28.49,28.49,0,0,1-8.17-12.13C540.54,1094.49,540.77,1093.26,540.94,1092.32Z" transform="translate(-316.78 -318.5)" style="opacity:0.24"/><path d="M556.52,1039.05s-10.65-1.23-17.33,7.39-13.87,35.27,2.71,49.76,33-1.91,35.41-19.3S580.68,1038.42,556.52,1039.05Z" transform="translate(-316.78 -318.5)" style="fill:#ffc0bb"/><path d="M582.21,1076.64c-2,3.84-5.3,6-7.42,4.75s-2.23-5.32-.25-9.16,5.3-6,7.42-4.75S584.19,1072.8,582.21,1076.64Z" transform="translate(-316.78 -318.5)" style="fill:#ffc0bb"/><path d="M557.71,1036.2s-14.23,25.34-24.41,26.51-11.52,14.64-11.52,14.64,3.64-31,13.72-37S557.71,1036.2,557.71,1036.2Z" transform="translate(-316.78 -318.5)" style="fill:#184655"/><path d="M536,1069.08c.83,4.5-.84,8.63-3.72,9.22s-5.89-2.58-6.72-7.08.84-8.63,3.72-9.22S535.14,1064.58,536,1069.08Z" transform="translate(-316.78 -318.5)" style="fill:#ffc0bb"/><path d="M486.78,1081.93s35.68,38.29,41,53.71-5.17,37.5-19.63,38.47-46.66-67.95-46.66-67.95Z" transform="translate(-316.78 -318.5)" style="fill:#fae0b2"/><path d="M662.64,1139.56H638c-13.82,0-25,11.72-25,26.18v370.75h74.72V1165.74C687.66,1151.28,676.46,1139.56,662.64,1139.56Z" transform="translate(-316.78 -318.5)" style="fill:#466eb6"/><rect x="319.03" y="821.06" width="29" height="396.93" style="fill:#86b1f2"/><path d="M649.4,1674.37h0a10.87,10.87,0,0,0,10.5-8.79l8.45-39.26H631l7.86,39.1A10.89,10.89,0,0,0,649.4,1674.37Z" transform="translate(-316.78 -318.5)" style="fill:#b75742"/><polygon points="314.22 1307.82 351.57 1307.82 370.89 1217.99 296.17 1217.99 314.22 1307.82" style="fill:#fae0b2"/><path d="M673.07,1139.56H627.53c-8.06,0-14.59,6.83-14.59,15.26v54.34h74.72v-54.34C687.66,1146.39,681.13,1139.56,673.07,1139.56Z" transform="translate(-316.78 -318.5)" style="fill:#f47458"/><rect x="608.43" y="1209.16" width="83.74" height="16.39" rx="0.67" transform="translate(983.83 2116.21) rotate(180)" style="fill:#86b1f2"/><polygon points="820.83 224.96 808.94 227.84 800.95 213.24 782.91 215.76 774.67 205.6 768.17 208.89 779.18 222.48 796.28 220.09 804.59 235.29 822.48 230.95 820.83 224.96" style="fill:#50bfa5"/><polygon points="1599.92 501.46 1579.96 504.99 1569.06 487.99 1573.18 485.35 1582.31 499.61 1602.88 495.98 1612.17 517.48 1625.51 513.39 1626.56 518.18 1609.42 523.44 1599.92 501.46" style="fill:#02ccc0"/><polygon points="74.36 1098.17 70.56 1078.25 87.41 1067.13 90.11 1071.2 75.97 1080.54 79.89 1101.05 58.51 1110.63 62.79 1123.92 58.01 1125.03 52.52 1107.96 74.36 1098.17" style="fill:#02ccc0"/><path d="M1288.84,545.12l-7.34-17.35-18.45-3.8a2.58,2.58,0,0,1-1.17-4.49l14.23-12.34-2.1-18.72a2.59,2.59,0,0,1,3.91-2.5l16.14,9.72,17.15-7.78a2.59,2.59,0,0,1,3.59,2.95l-4.26,18.34,12.7,13.92a2.58,2.58,0,0,1-1.69,4.32L1302.78,529l-9.31,16.38A2.59,2.59,0,0,1,1288.84,545.12Z" transform="translate(-316.78 -318.5)" style="fill:#f7cc7f"/><polygon points="1495.95 167.47 1510.94 167.04 1517.62 149.62 1538.5 152.42 1541.49 140.38 1544.58 141.43 1540.95 156.03 1519.73 153.18 1513.2 170.22 1496.05 170.71 1495.95 167.47" style="fill:#ff5b7e"/><polygon points="285.66 559.61 282.22 575.23 264.12 569.48 265.68 564.6 278.42 568.64 280.65 558.51 285.66 559.61" style="fill:#50bfa5"/><path d="M2083.7,1667.81H377.46a6.72,6.72,0,0,0-6.77,6.12,6.57,6.57,0,0,0,6.55,7H2083.7a6.56,6.56,0,0,0,6.56-6.56h0A6.56,6.56,0,0,0,2083.7,1667.81Z" transform="translate(-316.78 -318.5)" style="fill:#184655"/><polygon points="1295.46 172.94 1279.77 176.99 1272.1 157.18 1256.23 163.84 1249.38 143.93 1234.8 144.5 1228.61 129.56 1219.44 132.28 1218.51 127.62 1230.71 124 1237.18 139.61 1251.96 139.03 1258.43 157.84 1274.15 151.25 1282 171.51 1297.21 167.58 1306.09 183.29 1302.85 186.01 1295.46 172.94" style="fill:#f7cc7f"/><polygon points="23.71 734.2 32.41 736.36 32.28 746.61 41.79 751.19 40.79 763.1 52.53 764.88 52.01 778 62.7 780.99 64.06 792.08 61.28 792.42 60.14 783.19 49.11 780.1 49.62 767.28 37.77 765.49 38.83 752.88 29.45 748.36 29.57 738.55 23.03 736.93 23.71 734.2" style="fill:#f47458"/><rect x="407.52" y="520.85" width="1103.43" height="842.15" rx="81.59" style="fill:#31367b"/><rect x="431.69" y="540.63" width="1061.46" height="797" rx="43" style="fill:#184655"/><path d="M724.3,1630.77v28.58c0,12.23,26.29,22.15,58.72,22.15H1910.7c32.43,0,58.72-9.92,58.72-22.15v-28.58Z" transform="translate(-316.78 -318.5)" style="fill:#07085b"/><rect x="504.86" y="568.19" width="917.84" height="683.88" style="fill:#96d9c9"/><rect x="536.24" y="622.39" width="838.54" height="597.3" style="fill:#f47458"/><rect x="534.01" y="577.32" width="786.97" height="642.38" style="fill:#86b1f2"/><rect x="549.46" y="606.28" width="746.44" height="52.29" style="fill:#9bc1f9"/><rect x="536.24" y="155.01" width="652.73" height="1006.51" style="fill:#cae2ea"/><rect x="581.8" y="592.88" width="545.65" height="52.76" style="fill:#252525;opacity:0.46"/><rect x="584.32" y="694.77" width="256.97" height="11.25" style="fill:#b5d5e0"/><rect x="897.09" y="694.77" width="239.16" height="11.25" style="fill:#b5d5e0"/><rect x="584.32" y="723.23" width="256.97" height="11.25" style="fill:#b5d5e0"/><rect x="897.09" y="723.23" width="239.16" height="11.25" style="fill:#b5d5e0"/><rect x="584.32" y="751.68" width="256.97" height="11.25" style="fill:#b5d5e0"/><rect x="897.09" y="751.68" width="239.16" height="11.25" style="fill:#b5d5e0"/><rect x="584.32" y="780.14" width="256.97" height="11.25" style="fill:#b5d5e0"/><rect x="897.09" y="780.14" width="239.16" height="11.25" style="fill:#b5d5e0"/><rect x="897.09" y="808.59" width="239.16" height="11.25" style="fill:#b5d5e0"/><rect x="584.32" y="808.59" width="256.97" height="11.25" style="fill:#b5d5e0"/><rect x="584.32" y="837.04" width="256.97" height="11.25" style="fill:#b5d5e0"/><rect x="897.09" y="837.04" width="239.16" height="11.25" style="fill:#b5d5e0"/><rect x="584.32" y="865.5" width="256.97" height="11.25" style="fill:#b5d5e0"/><rect x="897.09" y="865.5" width="239.16" height="11.25" style="fill:#b5d5e0"/><rect x="584.32" y="893.95" width="256.97" height="11.25" style="fill:#b5d5e0"/><rect x="897.09" y="893.95" width="239.16" height="11.25" style="fill:#b5d5e0"/><rect x="584.32" y="922.41" width="256.97" height="11.25" style="fill:#b5d5e0"/><rect x="897.09" y="922.41" width="239.16" height="11.25" style="fill:#b5d5e0"/><rect x="584.32" y="950.86" width="256.97" height="11.25" style="fill:#b5d5e0"/><rect x="897.09" y="950.86" width="239.16" height="11.25" style="fill:#b5d5e0"/><rect x="897.09" y="979.32" width="239.16" height="11.25" style="fill:#b5d5e0"/><rect x="584.32" y="979.32" width="256.97" height="11.25" style="fill:#b5d5e0"/><rect x="584.32" y="1007.77" width="256.97" height="11.25" style="fill:#b5d5e0"/><rect x="897.09" y="1007.77" width="239.16" height="11.25" style="fill:#b5d5e0"/><rect x="897.09" y="1036.23" width="239.16" height="11.25" style="fill:#b5d5e0"/><rect x="584.32" y="1036.23" width="256.97" height="11.25" style="fill:#b5d5e0"/><rect x="927.78" y="210.77" width="202.81" height="11.25" style="fill:#b5d5e0"/><rect x="927.78" y="239.22" width="202.81" height="11.25" style="fill:#b5d5e0"/><rect x="927.78" y="267.68" width="202.81" height="11.25" style="fill:#b5d5e0"/><rect x="927.78" y="296.13" width="202.81" height="11.25" style="fill:#b5d5e0"/><rect x="927.78" y="324.59" width="202.81" height="11.25" style="fill:#b5d5e0"/><rect x="928.68" y="373.16" width="202.81" height="11.25" style="fill:#b5d5e0"/><rect x="928.68" y="401.62" width="202.81" height="11.25" style="fill:#b5d5e0"/><rect x="928.68" y="430.07" width="202.81" height="11.25" style="fill:#b5d5e0"/><rect x="928.68" y="458.52" width="202.81" height="11.25" style="fill:#b5d5e0"/><rect x="928.68" y="486.98" width="202.81" height="11.25" style="fill:#b5d5e0"/><rect x="596.98" y="213.48" width="277.14" height="343.36" style="fill:#b5d5e0"/><path d="M683.24,658.62c.69-5.37-2.91-12-8.26-12.12-.58,0-8.57,4.64-9.46,9.23-1.26,6.53,1.43,13.94,4,22.57C675.44,672.91,682.27,666.29,683.24,658.62Z" transform="translate(-316.78 -318.5)" style="fill:#feb546"/><path d="M604.7,689.18c-14.29-8.34-17.84,9.88-9,16,5.25,3.62,12.79,4,23,1.25C615.22,699.15,611,692.88,604.7,689.18Z" transform="translate(-316.78 -318.5)" style="fill:#feb546"/><path d="M741,819c-16.08-51.42-25.73-69.21-13.92-96.39,34.53-79.48-45.12-161.89-125.2-129.63s-80.36,146.87-.35,180.22a65,65,0,0,1,32.86,31.18l23.92,47.93a28.31,28.31,0,0,0,35.92,13.62l30.33-12.22A28.3,28.3,0,0,0,741,819Zm-40.08-29.48c-12.09-33.88-23.43-68.48-33.77-103a130.86,130.86,0,0,1-42,22.8c7.09,16.46,24.63,61,39.13,102l-4.38,1.55c-15.44-43.67-33.63-89.36-39.22-102.22-47.06,13.27-40.18-41-13.63-25.49,7.57,4.42,12.29,11.65,16.18,19.86a126.3,126.3,0,0,0,42.44-23.37c-3.24-10.9-6.2-19-4.7-26.82,2.28-11.74,15.19-17.68,23-8.49a17.07,17.07,0,0,1,3.86,12.86c-1.21,9.56-9.53,17.56-16.88,24,10.48,35.13,22,70.31,34.28,104.74Z" transform="translate(-316.78 -318.5)" style="fill:#feb546"/><path d="M633.69,803.22c.21.39.45.77.65,1.17l23.92,47.93a28.31,28.31,0,0,0,35.92,13.62l30.33-12.22A28.3,28.3,0,0,0,741,819c-7.15-22.88-13-39.09-16.31-52.44Z" transform="translate(-316.78 -318.5)" style="fill:#feb546"/><path d="M531.75,568.88l-35-39.82a9.29,9.29,0,1,1,14-12.26l35,39.81a9.29,9.29,0,1,1-14,12.27Z" transform="translate(-316.78 -318.5)" style="fill:#feb546"/><path d="M502,690.76l-55.23,7.38a9.29,9.29,0,1,1-2.46-18.42l55.24-7.37A9.29,9.29,0,0,1,502,690.76Z" transform="translate(-316.78 -318.5)" style="fill:#feb546"/><path d="M485.36,868.87A9.3,9.3,0,0,1,482.57,856a304.17,304.17,0,0,1,35.6-45.23,9.29,9.29,0,1,1,13.44,12.82,285.25,285.25,0,0,0-33.41,42.46A9.28,9.28,0,0,1,485.36,868.87Z" transform="translate(-316.78 -318.5)" style="fill:#feb546"/><path d="M665.06,536.5a9.29,9.29,0,0,1-8.9-9.66A353,353,0,0,0,651.6,454a9.29,9.29,0,0,1,18.32-3.08,371.31,371.31,0,0,1,4.8,76.73A9.28,9.28,0,0,1,665.06,536.5Z" transform="translate(-316.78 -318.5)" style="fill:#feb546"/><path d="M736.42,593.67A9.3,9.3,0,0,1,740,581l52.53-29.56a9.29,9.29,0,1,1,9.11,16.19l-52.53,29.56A9.29,9.29,0,0,1,736.42,593.67Z" transform="translate(-316.78 -318.5)" style="fill:#feb546"/><path d="M862.45,722.86a9.26,9.26,0,0,1-2.54.21,291.48,291.48,0,0,1-61.45-10,9.29,9.29,0,0,1,4.93-17.91,272.72,272.72,0,0,0,57.53,9.36,9.29,9.29,0,0,1,1.53,18.34Z" transform="translate(-316.78 -318.5)" style="fill:#feb546"/><rect x="542.46" y="61.46" width="589.03" height="63.87" rx="8.16" style="fill:#9bc1f9"/><path d="M1310.05,435.37H896.91a13.75,13.75,0,0,1-13.73-13.74v-19.7a13.75,13.75,0,0,1,13.73-13.73h413.14a13.75,13.75,0,0,1,13.74,13.73v19.7A13.75,13.75,0,0,1,1310.05,435.37ZM896.91,392a10,10,0,0,0-9.93,9.93v19.7a10,10,0,0,0,9.93,9.94h413.14a10,10,0,0,0,9.94-9.94v-19.7a10,10,0,0,0-9.94-9.93Z" transform="translate(-316.78 -318.5)" style="fill:#466eb6"/><path d="M1382.37,418.17a16.54,16.54,0,1,1,16.54-16.54A16.56,16.56,0,0,1,1382.37,418.17Zm0-29.27a12.74,12.74,0,1,0,12.73,12.73A12.75,12.75,0,0,0,1382.37,388.9Z" transform="translate(-316.78 -318.5)" style="fill:#466eb6"/><path d="M1404,434.6l-14.8-19.84a1.9,1.9,0,0,1,2.93-2.41l.12.13L1408.93,431a3.06,3.06,0,0,1-4.55,4.09l-.17-.21Z" transform="translate(-316.78 -318.5)" style="fill:#466eb6"/><path d="M1752,452.25a26.62,26.62,0,1,1-35.16-13.46A26.62,26.62,0,0,1,1752,452.25Z" transform="translate(-316.78 -318.5)" style="fill:#f7cc7f"/><path d="M1716.42,472.75a14.23,14.23,0,1,0,26-11.6Z" transform="translate(-316.78 -318.5)" style="fill:#efefef"/><path d="M1461.48,1296.43c9.64-2.72,9.9-1,11.12-1.42,1.45-.45,13.11-15.92,13.11-15.92s34.73-45.35,36.5-47.87l11-58.67,32.9-.26s-13.74,63.37-15.09,66.51-56.36,58.52-61,63.56c0,0-3,8.19-5.09,13.25s-6.52,8.77-7.35,10.09a44.22,44.22,0,0,1-8.45,8.51c-4.56,3.54-2.15-2-2.15-2s7.06-8.12,6.24-8.6c-.64-.37-4.2,4.3-9.2,8.27-1.29,1-2.56,2-3.74,2.93-3.1,2.39-5.72,1.12-3-1.91a35,35,0,0,1,4-3.87,28.32,28.32,0,0,0,3.54-3.86,37.86,37.86,0,0,0,3.62-4c-.2-.06-.14-.83-1.55.2-1.69,1.25-4.58,4.72-7.23,6.36-1.51.93-4.51,3.07-4.51,3.07s-5.25,2.36-5.53,2.1c-1.52-1.41,1.49-4,3.74-5a23.59,23.59,0,0,1,4.24-3.52s5.36-5.86,4.42-6.68c-.4-.34-4.18,2.83-8.46,5.34-4,2.33-8.45,4-9.14,3.3-1.16-1.23,2.92-4.29,2.92-4.29s3-2,3.92-2.73c1.1-.86,4.14-3.71,4.14-3.71s10-10.43,9.09-11.14-4.07-1.66-5-1.24-2,2-2.87,2.45a2.79,2.79,0,0,1-3.21-.83c-.74-1,2.54-4.69,2.54-4.69S1458.69,1297.22,1461.48,1296.43Z" transform="translate(-316.78 -318.5)" style="fill:#f48c7f"/><path d="M1515.21,1592.74s-.3,20.24-.29,20.28c.43,2.57,3.6,8.92,3.6,11.26,0,8.78-39.89-7.45-31-11.34.81-.35,5-3,5.31-6,.41-4.61,1.45-13.92,1.45-13.92Z" transform="translate(-316.78 -318.5)" style="fill:#f7a491"/><path d="M1487.67,1612.86s9.36,2.68,14.16,3.35,11.12-5,14.51-3.45c3.74,1.68,3.36,18.23,3.36,18.23s-47.89.68-64.12-.24C1449.73,1630.42,1468.52,1619.11,1487.67,1612.86Z" transform="translate(-316.78 -318.5)" style="fill:#b75742"/><path d="M1604,1592.74s1.17,20.24,1.17,20.28c.43,2.57,2.13,8.92,2.13,11.26,0,8.78-39.89-7.45-31-11.34.81-.35,6.3-5,6.57-8,.41-4.6.19-11.93.19-11.93Z" transform="translate(-316.78 -318.5)" style="fill:#f7a491"/><path d="M1576.43,1612.86s9.36,2.68,14.16,3.35,11.12-5,14.51-3.45c3.74,1.68,3.64,18,3.64,18s-53.49.57-66.53,0C1536.35,1630.49,1557.28,1619.11,1576.43,1612.86Z" transform="translate(-316.78 -318.5)" style="fill:#b75742"/><path d="M1540.76,1300.49l-16.86,7.13-35.48,165.87,1.44,124.35,28.44.65s13.23-108.78,13.23-117.21,61.26-147.51,61.26-147.51Z" transform="translate(-316.78 -318.5)" style="fill:#355389"/><path d="M1553.78,1309.62s12.43,127.8,12.43,149.34,10.07,142.12,10.07,142.12l28.5-.16s2.06-36.75,5.12-90.82c.48-8.47-.62-25.55,0-34.32,4.43-63,13.2-122.4,9-145.93-.67-3.79-1.94-13.69-4.41-16.19C1595.84,1294.75,1553.78,1309.62,1553.78,1309.62Z" transform="translate(-316.78 -318.5)" style="fill:#466eb6"/><path d="M1519,1208.76l34.49-2.26s1.7-30.19,1.7-44.59c0-17.47,5.44-43.23,3.32-42.74-6,1.36-16.27,6.73-21.06,13.26C1520.91,1155,1519,1208.76,1519,1208.76Z" transform="translate(-316.78 -318.5)" style="fill:#f7cc7f"/><path d="M1600.73,1118.5s19.67,2.68,24.85,6.4c5.83,4.19,12.3,13.57,12.3,13.57s-24.15,111.77-24.19,130.58c0,14.55,5.23,50.28,5.23,50.28s-73,4.51-100.62-6.17c0,0,8.72-42.49,8.72-53.65s10.44-112.62,12.82-119.71c2.16-6.43,6.1-18,19.43-20.83S1600.73,1118.5,1600.73,1118.5Z" transform="translate(-316.78 -318.5)" style="fill:#f7cc7f"/><path d="M1595.36,1088.41l4.87,31.21s-17.78,37.16-28.4,33.94c-8.9-2.71-3.42-35.59-3.42-35.59s4.85-17.66,3.4-26.5S1595.36,1088.41,1595.36,1088.41Z" transform="translate(-316.78 -318.5)" style="fill:#f7a491"/><path d="M1571.81,1091.47c-1.46-8.83,23.55-3.06,23.55-3.06l.4,2.58a14,14,0,0,1-2.71,4.35,33.38,33.38,0,0,1-21.87,9.63C1571.94,1100.2,1572.4,1095.1,1571.81,1091.47Z" transform="translate(-316.78 -318.5)" style="fill:#f47458"/><path d="M1599.46,1044.25c.71-.25,5.67,35.55-3.74,45.4s-27.75,13.07-34.33,5.31c-7.27-8.58-6.9-47,7.73-57.18S1599.46,1044.25,1599.46,1044.25Z" transform="translate(-316.78 -318.5)" style="fill:#f7a491"/><path d="M1574.69,1018.63a40.77,40.77,0,0,1,21.32,11.83c5.14.59,12.12,3.35,19.33,15,8.86,14.27,2.31,30.09-8,37.84s-10.18,16.68-10.18,16.68l-1.63-4.59a25.35,25.35,0,0,1-1.29-10.92,20.78,20.78,0,0,1,1.67-6.56c2.48-5.19-5.33-8.63-7.52-12.94-1.69-3.32-1.77-10.91-4.43-16.4l-3.17-4.18s-7.32-5.54-14.48-4S1560.18,1015.75,1574.69,1018.63Z" transform="translate(-316.78 -318.5)" style="fill:#13375b"/><path d="M1588.87,1071.29c-.07,4.37,2,8,4.56,8s4.76-3.46,4.83-7.83-2-7.94-4.56-8S1589,1066.92,1588.87,1071.29Z" transform="translate(-316.78 -318.5)" style="fill:#f7a491"/><path d="M1550.57,1232.19l-.47,2.67a2.57,2.57,0,0,1-3,2.05l-56.4-9.57a2.52,2.52,0,0,1-2.1-2.91l.47-2.66a2.58,2.58,0,0,1,3-2.06l56.4,9.57A2.53,2.53,0,0,1,1550.57,1232.19Z" transform="translate(-316.78 -318.5)" style="fill:#13375b"/><path d="M1630.54,1132.89c-6.62-.19-12.47,42.56-8.28,46.77s5,56.86,5,56.86l-62.44-1.52v0c-1.21-.8-14.29-9.4-16.16-11.28s-11.5-1-14,1.73,5.61.49,7.85,2-1.68,5.18-1.68,5.18-15.83,2.24-18.91-1-11.32-8.63-12.44-5.42c-.58,1.65,3.67,6.66,6.06,8.76-3-2.19-6.56-4.51-7.79-4.11-2.24.74-1.31,3.53-.09,4.36s13.77,10.21,15.73,10.87,31.14,1.34,36.18,2.44c0,0,82.34,18.36,87,17.21,4.1-1,8.21-26.81,8.21-46.57S1651.22,1133.48,1630.54,1132.89Z" transform="translate(-316.78 -318.5)" style="fill:#f7a491"/><path d="M1622,1123.14s11.52,2.6,23.42,15.69c10.82,11.9,17.63,78.56,17.63,78.56l-37.36,5.92-3-32.25-10-14.75Z" transform="translate(-316.78 -318.5)" style="fill:#f7cc7f"/><path d="M1009.33,755l-23.66,71.64H955.26l77.38-227.75h35.48l77.72,227.75h-31.42L1090.09,755ZM1084,732l-22.3-65.55c-5.07-14.87-8.45-28.39-11.82-41.56h-.68c-3.38,13.51-7.1,27.37-11.49,41.22L1015.41,732Z" transform="translate(-316.78 -318.5)" style="fill:#07085b"/><path d="M1997.66,1092.51l-10.28-9-13.24,3.37a1.88,1.88,0,0,1-2.19-2.56l5.38-12.56L1970,1060.2a1.88,1.88,0,0,1,1.76-2.87l13.61,1.24,8.73-10.51a1.88,1.88,0,0,1,3.28.78l3,13.33,12.7,5.06a1.88,1.88,0,0,1,.26,3.36l-11.73,7-.9,13.63A1.87,1.87,0,0,1,1997.66,1092.51Z" transform="translate(-316.78 -318.5)" style="fill:#ff5b7e"/><path d="M522.36,425.1l-10.28-9-13.24,3.37a1.88,1.88,0,0,1-2.19-2.56L502,404.34l-7.29-11.56a1.88,1.88,0,0,1,1.76-2.87l13.6,1.24,8.74-10.51a1.88,1.88,0,0,1,3.28.79l3,13.32,12.7,5.07a1.87,1.87,0,0,1,.26,3.35l-11.74,7-.89,13.64A1.88,1.88,0,0,1,522.36,425.1Z" transform="translate(-316.78 -318.5)" style="fill:#02ccc0"/><path d="M797.26,436,787,427l-13.24,3.36a1.88,1.88,0,0,1-2.19-2.56l5.38-12.56-7.29-11.55a1.88,1.88,0,0,1,1.76-2.88L785,402l8.73-10.5a1.88,1.88,0,0,1,3.28.78l3,13.33,12.7,5.06a1.88,1.88,0,0,1,.26,3.36l-11.74,7-.89,13.64A1.88,1.88,0,0,1,797.26,436Z" transform="translate(-316.78 -318.5)" style="fill:#f47458"/><path d="M1671.05,725.47c37.43,15.4,49.47-18.24,48.53-17.35.72-.77,6.35-3.22,10-5,15-7.35,14.55-33.29,14.21-50.49,21.52-13.1,26.91-38.2,12.15-53.54,4.54-17,5.51-27.77-9.72-36.41-11.53-20.1-43.83-13.28-59.51,2.48a44.49,44.49,0,0,0-12.42,31.38c-18.45,7.64-28.1,28-23.91,48.49C1625.44,665.53,1632.87,709.76,1671.05,725.47Z" transform="translate(-316.78 -318.5)" style="fill:#13375b"/><path d="M1809,783.48c-3-3-8.3-5.59-8-6,1.25-1.77,14.33,11.75,13.47,7.94-.48-2.12-9.83-13.16-13.15-13.57s-24.07-3.69-24.07-3.69l-48.16-32s-2.39-37.87,7.84-63.38c-11.18-3.4-13.36-4.14-24.85-3.25-6.55,25.88-13.6,69.46-5.09,82.16,3.58,5.34,66.19,26,66.19,26s13.54,5.1,16.06,5.26c1.92.12,7.19-.32,9.77.08,5.85.9,13.1,9.61,13.59,8.6C1813,790.87,1812.07,786.51,1809,783.48Z" transform="translate(-316.78 -318.5)" style="fill:#f48c7f"/><path d="M1742.79,669.71a169.62,169.62,0,0,0-9.18-15c-4.69-8.37-16.81-12.6-16.81-12.6s-4.06.08-8.71.31a3.8,3.8,0,0,1-.88,1.55c-1.75,1.32-11.78-.38-18.26,4-21.7,18.67-15.7,109.17-14,137.75l54.19.24s3.59-61.11,17-76.91C1755.52,698.07,1749.5,682.13,1742.79,669.71Z" transform="translate(-316.78 -318.5)" style="fill:#f7cc7f"/><path d="M1757.65,988.12c.58-1.07,8.12-19.24,14.27-27.33,8.93-11.75,86.2-118.15,83-144-1.39-11.31-34.87-20.9-38.85-21.58-21.3,2.86,1.08,21.2-14.92,36.28,10.4,3.56,16.54,8,14.29,10.93-9,11.71-56.83,106.1-58.91,107.32-9.26,5.43-12.89,2.91-12.89,2.91s2.13,53.1,6.55,51.42S1751.1,1000.19,1757.65,988.12Z" transform="translate(-316.78 -318.5)" style="fill:#f48c7f"/><path d="M1739.75,953l8.93,53.49c2,6.92,5.39,6.85,6.25,5.92,1.79-1.91,2.6-16.19,2.82-24.31-4-12.39-3.65-35.72-1.17-38.35C1750.51,949.81,1739.75,951.76,1739.75,953Z" transform="translate(-316.78 -318.5)" style="fill:#355389"/><path d="M1771.69,821.89c12-19.88,11.35-17.36,32.21-26.34,8.36,3.36,36.34,20.89,39.88,24.13L1799.29,852C1800.74,848.35,1785.24,830.43,1771.69,821.89Z" transform="translate(-316.78 -318.5)" style="fill:#f7a491"/><path d="M1713,611.49s-2.76,26.47-6.17,32.37c-1.22,2.1,14,19.86,27.68,24s-4.19-14-3.63-20.74,3.07-38.8,3.07-38.8Z" transform="translate(-316.78 -318.5)" style="fill:#f7a491"/><path d="M1733.25,617.48c.4-5.3.69-9.19.69-9.19l-21,3.2s-.53,3.06-1.11,7.38C1720.37,623.82,1728,622.26,1733.25,617.48Z" transform="translate(-316.78 -318.5)" style="fill:#f47458"/><path d="M1719.56,563.92a23.77,23.77,0,0,0-13.35,9.68c-5.1,7.8-8.6,30.78,8.19,41.51s29.85-4.45,30.07-19.25S1741.52,561.31,1719.56,563.92Z" transform="translate(-316.78 -318.5)" style="fill:#f7a491"/><path d="M1748.31,591.23c-1.43,3.57-4.28,5.79-6.35,4.95s-2.59-4.41-1.16-8,4.28-5.79,6.35-5S1749.74,587.66,1748.31,591.23Z" transform="translate(-316.78 -318.5)" style="fill:#f7a491"/><path d="M1705.94,594.17c1.22,3.84.1,7.63-2.49,8.46s-5.68-1.63-6.9-5.47-.1-7.64,2.49-8.46S1704.72,590.32,1705.94,594.17Z" transform="translate(-316.78 -318.5)" style="fill:#f7a491"/><path d="M1769.24,787.51c-9.27-.85-40-4-40-4l-54.43-7.32s-9.61,23-10,37.4c-.66,25.22,18.36,34.72,38.21,33.5,11.81-.73,81.39-2.68,96,4.72,2.7-20.55,5.8-42.81,19.65-57.6C1796.52,791.21,1781.82,788.67,1769.24,787.51Z" transform="translate(-316.78 -318.5)" style="fill:#184655"/><path d="M1769.93,977.74c1.5-1.54,13.44-83.21,20.64-117.49A28.83,28.83,0,0,1,1805,840.87l38.82-21.19c13.45,12.3-49.3,150.45-55,164.93-4,10-6.44,30.57-6.73,31.82-3.23,14.13,1,15.33-3,18.29s-22-48.6-22-48.6S1762.06,985.9,1769.93,977.74Z" transform="translate(-316.78 -318.5)" style="fill:#f7a491"/><path d="M1758.24,791.07h0a4,4,0,0,0,4.22,3.73l65.94.16c2.34,0,4.68-2,5.44-4.52l-1.2.8a4,4,0,0,0-4.22-3.73l-65.94-.16A4,4,0,0,0,1758.24,791.07Z" transform="translate(-316.78 -318.5)" style="fill:#355389"/><path d="M1827.74,793.61a8,8,0,0,1-1.19-.08c-3.41-.43-5.65-2.61-5-4.86l25.17-87.09c.65-2.25,3.94-3.73,7.36-3.3s5.65,2.61,5,4.86l-25.17,87.09C1833.33,792.22,1830.7,793.61,1827.74,793.61Z" transform="translate(-316.78 -318.5)" style="fill:#355389"/><path d="M1808.32,781.81c-3.78-1.89-9.62-2.75-9.46-3.26.64-2.07,17.41,8.62,15.42,5.27-1.11-1.87-13.58-11.36-16.87-10.72s-24,3.95-24,3.95l-53.63-19.38s-10.22-33.36-8.41-60.77c-11.68.22-19.85,2.16-30.49,6.56,1.78,26.64,8.59,70.26,20.62,79.7,5.06,4,71,4.21,71,4.21s14.45.65,16.9,0c1.86-.48,6.74-2.53,9.31-2.95,5.84-1,15.43,5.08,15.59,4C1814.39,787.6,1812.17,783.74,1808.32,781.81Z" transform="translate(-316.78 -318.5)" style="fill:#f7a491"/><path d="M1715.08,667.81c-.75-8.43-1.78-16.92-10.37-20.56-5.33-2.26-11.69-2.33-16.52.76-5.74,3.69-8,11.31-8.74,17.83A255.52,255.52,0,0,0,1678,711c10.65-4.4,25.13-2.07,36.82-2.3C1717.42,695.67,1716.06,678.79,1715.08,667.81Z" transform="translate(-316.78 -318.5)" style="fill:#fae0b2"/><path d="M1800.35,773.85c9.16,2.35,8.65,2.17,9,2.41,6.48,4.08,6,5.85-4,1.59a1.8,1.8,0,0,0-.79-.16l-4.72,0a2,2,0,0,1-1.32-3.46h0A2,2,0,0,1,1800.35,773.85Z" transform="translate(-316.78 -318.5)" style="fill:#f7a491"/><path d="M1782.41,1013.42s.87,6.11,1.78,11.67-.48,14.53-2.49,17.21S1756,989.41,1756,989.41a4.21,4.21,0,0,1,1.07-4.89,34.19,34.19,0,0,1,12.79-6.68S1768.84,1006.38,1782.41,1013.42Z" transform="translate(-316.78 -318.5)" style="fill:#466eb6"/><path d="M1596.81,386.57l-11,6.7,11.42,51.31a6.63,6.63,0,0,0,9.92,4.22h0a6.63,6.63,0,0,0,3-7.16l-2.79-12.05,11.55-7,9.56,8a6.62,6.62,0,0,0,7.7.58l.21-.13a6.63,6.63,0,0,0,.8-10.75Zm7.45,30.92-2.11-9.43,7.41,6.2Z" transform="translate(-316.78 -318.5)" style="fill:#ff5b7e"/><path d="M1794.41,318.5c5.26.43,15.55,2.56,25,5.26,11.57,3.31,18.34,6.46,23.41,11.81a19,19,0,0,1,5.38,19.3c-2.13,7.47-8.48,13.19-18.93,14l-.07.25c8.83,5.35,13.86,14.6,10.77,25.42a23.21,23.21,0,0,1-13.8,15.3c-7.48,3.11-18.46,2.94-35.14-1.83a153.11,153.11,0,0,1-20.17-7.11ZM1804,356l6.22,1.78c10,2.84,16.48.27,18.26-5.95s-2.08-11.1-10.67-13.55a53.73,53.73,0,0,0-8.22-1.81Zm-10.63,37.2a59.27,59.27,0,0,0,7.27,2.35c8.59,2.45,17.1,1.39,19.62-7.45,2.42-8.46-4.21-14-13.66-16.69l-6.47-1.85Z" transform="translate(-316.78 -318.5)" style="fill:#02ccc0"/><path d="M1943.81,602.39a7.85,7.85,0,0,1-5.78,9.39,73.33,73.33,0,0,1-14.54,1.87c-29.64,1-45.52-16.93-46.35-41.35-1-29.25,19.33-46.24,45.27-47.11a65.87,65.87,0,0,1,13.35.84,7.87,7.87,0,0,1,6.31,9.45l-.06.28a7.85,7.85,0,0,1-9,6.06,44.19,44.19,0,0,0-9.16-.64c-15.39.52-27,10.21-26.38,29.29.57,17.17,11.12,27.64,28.41,27a50.26,50.26,0,0,0,8.68-1.09,7.85,7.85,0,0,1,9.26,6Z" transform="translate(-316.78 -318.5)" style="fill:#f7cc7f"/></g></svg>