<svg height='300px' width='300px'  fill="#000000" xmlns="http://www.w3.org/2000/svg" xmlns:xlink="http://www.w3.org/1999/xlink" version="1.1" x="0px" y="0px" viewBox="0 0 100 100" style="enable-background:new 0 0 100 100;" xml:space="preserve"><path d="M11,10h12v10H9v-8C9,10.9,9.9,10,11,10z M9,34h14V24H9V34z M9,48h14V38H9V48z M9,62h14V52H9V62z M9,76h14V66H9V76z M9,88  c0,1.1,0.9,2,2,2h12V80H9V88z M89,10H77v10h14v-8C91,10.9,90.1,10,89,10z M77,34h14V24H77V34z M77,48h14V38H77V48z M77,62h14V52H77  V62z M77,76h14V66H77V76z M77,90h12c1.1,0,2-0.9,2-2v-8H77V90z M27,48h46V10H27V48z M27,90h46V52H27V90z"></path></svg>