<svg height='300px' width='300px'  fill="#000000" xmlns="http://www.w3.org/2000/svg" xmlns:xlink="http://www.w3.org/1999/xlink" version="1.1" x="0px" y="0px" viewBox="-149 71.3 100 100" style="enable-background:new -149 71.3 100 100;" xml:space="preserve"><path d="M-77.8,111.7h-45.3v-9.3h45.3V111.7z M-134.2,147.2c0.2,0.4,0.5,0.8,0.5,1.2c0.6-1,0.7-2.2,0.7-3.4c0-12.5,0-25,0-37.5  c-2.3,0.2-4.3,0.2-6.4,0.2c0,1.4,0,2.8,0,4.2c0,1.4,0,2.8,0,4.2c0,1.4,0,2.8,0,4.2c0,1.4,0,2.8,0,4.2c0,1.4,0,2.8,0,4.2  c0,1.4,0,2.8,0,4.2c0,1.4,0,2.8,0,4.2c0,1.4,0,2.8,0,4.2c0,1.4,0,2.8,0,4.2c0,0.4,0,0.7,0,1.1c0,0.2,0,0.3,0.1,0.5  c0.1,0.1,0.1,0.3,0.2,0.4c0.3,0.6,0.6,1.1,0.9,1.7c0.2,0.3,0.4,0.7,0.7,1c0.3,0.4,0.6,0.8,1.1,0.9c0.5,0.1,1.1-0.2,1.5-0.6  c0.4-0.4,0.6-1,0.8-1.5c-0.2,0.3-0.6,0.5-0.9,0.4c-0.4-0.1-0.6-0.4-0.9-0.7c-0.9-1.3-1-3-1-4.6c0-11.1,0-22.1,0-33.2  c0-0.4,0-0.8,0.2-1.2c0.2-0.4,0.5-0.7,0.9-0.7c0.7,0,1,1,1,1.8c0,10.9,0,21.8,0,32.6C-134.8,144.7-134.8,146-134.2,147.2z   M-70.3,92.5l0.7,0.7l11,11c0.1,0.1,0.1,0.2,0.2,0.3v-12H-70.3z M-70.1,104h8.4l-8.4-8.4V104z M-58.4,105.4v35.3  c-0.2,0.8-1.8,10.4-9.5,10.4H-133c0.5-0.9,1.1-2.2,1.6-3.7c0.1-0.1,0.1-0.2,0.1-0.3V92.5h59.5c-0.2,0.2-0.3,0.4-0.3,0.7V105  c0,0.5,0.5,1,1,1h11.8C-58.9,106-58.5,105.7-58.4,105.4z M-125.1,112.7c0,0.5,0.4,1,1,1h47.3c0.5,0,1-0.5,1-1v-11.3c0-0.5-0.5-1-1-1  h-47.3c-0.6,0-1,0.5-1,1V112.7z M-95.6,143.1c0-0.5-0.5-1-1-1h-27.5c-0.6,0-1,0.5-1,1s0.4,1,1,1h27.5  C-96,144.1-95.6,143.6-95.6,143.1z M-95.6,136.9c0-0.5-0.5-1-1-1h-27.5c-0.6,0-1,0.5-1,1c0,0.6,0.4,1,1,1h27.5  C-96,137.9-95.6,137.5-95.6,136.9z M-95.6,130.7c0-0.6-0.5-1-1-1h-27.5c-0.6,0-1,0.4-1,1c0,0.5,0.4,1,1,1h27.5  C-96,131.7-95.6,131.3-95.6,130.7z M-95.6,124.6c0-0.5-0.5-1-1-1h-27.5c-0.6,0-1,0.5-1,1s0.4,1,1,1h27.5  C-96,125.6-95.6,125.1-95.6,124.6z M-95.6,118.4c0-0.5-0.5-1-1-1h-27.5c-0.6,0-1,0.5-1,1s0.4,1,1,1h27.5  C-96,119.4-95.6,118.9-95.6,118.4z M-62.6,143.1c0-0.5-0.5-1-1-1h-27.5c-0.6,0-1,0.5-1,1s0.4,1,1,1h27.5  C-63,144.1-62.6,143.6-62.6,143.1z M-62.6,136.9c0-0.5-0.5-1-1-1h-27.5c-0.6,0-1,0.5-1,1c0,0.6,0.4,1,1,1h27.5  C-63,137.9-62.6,137.5-62.6,136.9z M-62.6,130.7c0-0.6-0.5-1-1-1h-27.5c-0.6,0-1,0.4-1,1c0,0.5,0.4,1,1,1h27.5  C-63,131.7-62.6,131.3-62.6,130.7z M-62.6,124.6c0-0.5-0.5-1-1-1h-27.5c-0.6,0-1,0.5-1,1s0.4,1,1,1h27.5  C-63,125.6-62.6,125.1-62.6,124.6z M-62.6,118.4c0-0.5-0.5-1-1-1h-27.5c-0.6,0-1,0.5-1,1s0.4,1,1,1h27.5  C-63,119.4-62.6,118.9-62.6,118.4z"></path></svg>