<svg height='300px' width='300px'  fill="#000000" xmlns="http://www.w3.org/2000/svg" xmlns:xlink="http://www.w3.org/1999/xlink" version="1.1" x="0px" y="0px" viewBox="0 0 100 100" enable-background="new 0 0 100 100" xml:space="preserve"><g><g><path fill="none" d="M44.282,41.619c0-3.155,2.565-5.72,5.72-5.72c3.152,0,5.72,2.565,5.72,5.72c0,0.823,0.665,1.488,1.485,1.488    c0.823,0,1.49-0.665,1.49-1.488c0-4.796-3.9-8.695-8.695-8.695c-4.796,0-8.698,3.9-8.698,8.695c0,0.823,0.667,1.488,1.491,1.488    C43.614,43.106,44.282,42.442,44.282,41.619z"></path><path d="M90.667,55.003c-2.794-2.797-6.512-4.333-10.461-4.333c-3.952,0-7.665,1.537-10.458,4.333    c-5.263,5.258-12.276,8.155-19.746,8.155c-7.472,0-14.483-2.897-19.746-8.155c-2.794-2.797-6.509-4.333-10.458-4.333    c-3.952,0-7.667,1.537-10.461,4.333C6.537,57.797,5,61.513,5,65.464c0,3.952,1.537,7.667,4.336,10.461    c10.848,10.845,25.289,16.82,40.665,16.82s29.815-5.972,40.663-16.817C93.46,73.131,95,69.416,95,65.464    C95,61.513,93.463,57.797,90.667,55.003z"></path><path d="M50.001,52.794c6.172,0,11.175-5.003,11.175-11.175s-5.003-11.175-11.175-11.175c-6.172,0-11.175,5.004-11.175,11.175    S43.83,52.794,50.001,52.794z M41.303,41.619c0-4.796,3.903-8.695,8.698-8.695c4.796,0,8.695,3.9,8.695,8.695    c0,0.823-0.667,1.488-1.49,1.488c-0.82,0-1.485-0.665-1.485-1.488c0-3.155-2.568-5.72-5.72-5.72c-3.155,0-5.72,2.565-5.72,5.72    c0,0.823-0.667,1.488-1.488,1.488C41.971,43.106,41.303,42.442,41.303,41.619z"></path><path d="M67.07,22.548h2.708v2.708c0,2.313,1.882,4.196,4.196,4.196s4.196-1.882,4.196-4.196v-2.708h2.705    c2.316,0,4.196-1.882,4.196-4.193c0-2.316-1.88-4.196-4.196-4.196H78.17v-2.711c0-2.311-1.883-4.193-4.196-4.193    s-4.196,1.882-4.196,4.193v2.711H67.07c-2.316,0-4.196,1.88-4.196,4.196C62.874,20.665,64.754,22.548,67.07,22.548z"></path><path d="M19.125,22.548h2.708v2.708c0,2.313,1.882,4.196,4.193,4.196c2.316,0,4.198-1.882,4.198-4.196v-2.708h2.705    c2.316,0,4.198-1.882,4.198-4.193c0-2.316-1.882-4.196-4.198-4.196h-2.705v-2.711c0-2.311-1.883-4.193-4.198-4.193    c-2.311,0-4.193,1.882-4.193,4.193v2.711h-2.708c-2.313,0-4.196,1.88-4.196,4.196C14.929,20.665,16.811,22.548,19.125,22.548z"></path></g></g></svg>