<svg xmlns="http://www.w3.org/2000/svg" xmlns:xlink="http://www.w3.org/1999/xlink" xml:space="preserve" version="1.1" style="shape-rendering:geometricPrecision;text-rendering:geometricPrecision;image-rendering:optimizeQuality;" viewBox="0 0 333 333" x="0px" y="0px" fill-rule="evenodd" clip-rule="evenodd"><defs></defs><g><path class="fil0" d="M228 61c32,-9 68,17 80,58 13,41 31,146 -1,155 -19,5 -53,-26 -79,-61l-61 0 -62 0c-26,35 -59,66 -79,61 -32,-9 -14,-114 -1,-155 12,-41 48,-67 80,-58 10,2 19,9 26,17l36 0 36 0c6,-8 15,-15 25,-17zm9 48l20 0 0 25 25 0 0 21 -25 0 0 25 -20 0 0 -25 -26 0 0 -21 26 0 0 -25zm-169 19c9,0 17,7 17,16 0,10 -8,17 -17,17 -9,0 -17,-7 -17,-17 0,-9 8,-16 17,-16zm41 26c10,0 17,8 17,17 0,9 -7,17 -17,17 -9,0 -16,-8 -16,-17 0,-9 7,-17 16,-17zm0 -53c10,0 17,8 17,17 0,9 -7,17 -17,17 -9,0 -16,-8 -16,-17 0,-9 7,-17 16,-17z"></path></g></svg>