<svg height='300px' width='300px'  fill="#000000" xmlns="http://www.w3.org/2000/svg" xmlns:xlink="http://www.w3.org/1999/xlink" version="1.1" x="0px" y="0px" viewBox="0 0 100 100" enable-background="new 0 0 100 100" xml:space="preserve"><path d="M95,88.785H5v-5.028h90V88.785z M95,32.107H5v5.028h90V32.107z M68.854,21.073v-9.428h-8.296v5.28L50,11.645l-30.797,15.4  h61.594L68.854,21.073z M22.246,44.613l0.335,32.495h2.237v1.622h4.61v-1.622h2.234l0.28-32.531  c-0.815-0.559-1.405-1.416-1.623-2.414h-6.394C23.703,43.183,23.091,44.056,22.246,44.613z M68.252,44.613l0.335,32.495h2.236v1.622  h4.61v-1.622h2.233l0.28-32.531c-0.815-0.559-1.405-1.416-1.622-2.414h-6.395C69.708,43.183,69.097,44.056,68.252,44.613z   M84.009,42.163c-0.223,1.021-0.834,1.894-1.679,2.45l0.335,32.495h2.237v1.622h4.378V42.163H84.009z M15.35,77.107h2.234  l0.28-32.531c-0.815-0.559-1.405-1.416-1.622-2.414H9.085v36.567h6.265V77.107z M61.355,78.729v-1.622h2.233l0.28-32.531  c-0.815-0.559-1.405-1.416-1.622-2.414H38.004c-0.223,1.021-0.835,1.894-1.68,2.45l0.335,32.495h2.237v1.622h5.51V59.12h9.554  v19.609H61.355z"></path></svg>