<svg height='300px' width='300px'  fill="#000000" xmlns="http://www.w3.org/2000/svg" xmlns:xlink="http://www.w3.org/1999/xlink" xml:space="preserve" version="1.1" style="shape-rendering:geometricPrecision;text-rendering:geometricPrecision;image-rendering:optimizeQuality;" viewBox="0 0 471 618" x="0px" y="0px" fill-rule="evenodd" clip-rule="evenodd"><defs></defs><g><path class="fil0" d="M172 612c7,-35 32,-90 10,-123 -107,11 -144,-74 -163,-166 82,-9 178,21 172,125 -34,-32 -49,-44 -86,-73 14,20 59,60 89,95 46,-109 55,-162 37,-217 -162,17 -202,-114 -231,-251 124,-14 259,52 249,208 -34,-46 -63,-75 -100,-103 55,64 116,95 114,244l109 -53c-43,17 -59,23 -101,45 22,-102 123,-104 200,-74 -93,179 -203,118 -202,116 -44,55 -46,116 -47,233l-50 -6z"></path></g></svg>