<svg  xmlns="http://www.w3.org/2000/svg" xmlns:xlink="http://www.w3.org/1999/xlink" version="1.1" x="0px" y="0px" viewBox="0 0 64 64" enable-background="new 0 0 64 64" xml:space="preserve"><g><path  d="M13.54,11.691l-9.985,0.038c-1.384,0.005-1.945,0.561-1.94,1.927l0.014,3.701l13.741-0.052l-0.014-3.802   C15.351,12.293,14.74,11.686,13.54,11.691z"></path><path d="M1.768,53.725c0.005,1.237,0.616,1.843,1.843,1.839l10.124-0.039c1.154-0.004,1.779-0.644,1.774-1.816   l-0.012-3.184L1.756,50.578L1.768,53.725z"></path><g><path d="M1.641,20.122l0.105,27.692l13.738-0.052L15.378,20.07L1.641,20.122z M13.056,27.016l-9.041,0.034    l-0.014-3.724l9.041-0.034L13.056,27.016z"></path></g><path  d="M32.612,11.618l-9.985,0.038c-1.384,0.005-1.945,0.561-1.94,1.927l0.014,3.701l13.741-0.052l-0.014-3.802   C34.423,12.22,33.812,11.613,32.612,11.618z"></path><path d="M20.84,53.653c0.005,1.237,0.616,1.843,1.843,1.839l10.124-0.039c1.154-0.004,1.779-0.644,1.774-1.816   l-0.012-3.184l-13.741,0.052L20.84,53.653z"></path><g><path d="M20.714,20.049l0.105,27.692l13.738-0.052l-0.105-27.692L20.714,20.049z M32.13,26.943l-9.041,0.034    l-0.014-3.724l9.041-0.034L32.13,26.943z"></path></g><path d="M50.25,8.524l-9.681,2.446c-1.342,0.339-1.752,1.014-1.418,2.338l0.907,3.588l13.322-3.367l-0.932-3.686   C52.153,8.671,51.413,8.23,50.25,8.524z"></path><path  d="M48.969,52.157c0.303,1.199,1.043,1.64,2.233,1.339l9.815-2.48c1.118-0.283,1.571-1.054,1.284-2.19   l-0.78-3.087l-13.322,3.367L48.969,52.157z"></path><g><path  d="M54.062,16.217L40.74,19.58l6.784,26.841l13.322-3.362L54.062,16.217z M44.723,25.736l-0.918-3.623    l8.757-2.205l0.918,3.613L44.723,25.736z"></path></g></g></svg>