<svg height='300px' width='300px'  fill="#000000" xmlns="http://www.w3.org/2000/svg" viewBox="0 0 64 64" x="0px" y="0px"><g><circle cx="31.5" cy="51.5" r="1.5"></circle><circle cx="37.5" cy="43.5" r="2.5"></circle><path d="M41.382,38H22.618L15.789,51.658A3,3,0,0,0,18.472,56H45.528a3,3,0,0,0,2.683-4.342ZM24.5,49A3.5,3.5,0,1,1,28,45.5,3.5,3.5,0,0,1,24.5,49Zm7,6A3.5,3.5,0,1,1,35,51.5,3.5,3.5,0,0,1,31.5,55Zm6-7A4.5,4.5,0,1,1,42,43.5,4.505,4.505,0,0,1,37.5,48Z"></path><path d="M52.316,49.87,37.1,19.447A1,1,0,0,1,37,19V7a1,1,0,0,1,1-1,1,1,0,0,0,0-2H26a1,1,0,0,0,0,2,1,1,0,0,1,1,1V19a1,1,0,0,1-.105.447L11.684,49.87A7,7,0,0,0,17.944,60H46.056a7,7,0,0,0,6.26-10.13ZM30,12h4a1,1,0,0,1,0,2H30a1,1,0,0,1,0-2Zm0,4h4a1,1,0,0,1,0,2H30a1,1,0,0,1,0-2Zm0,4h4a1,1,0,0,1,0,2H30a1,1,0,0,1,0-2Zm0,4h4a1,1,0,0,1,0,2H30a1,1,0,0,1,0-2Zm0,4h4a1,1,0,0,1,0,2H30a1,1,0,0,1,0-2Zm0,4h4a1,1,0,0,1,0,2H30a1,1,0,0,1,0-2ZM49.781,55.628A4.969,4.969,0,0,1,45.528,58H18.472A5,5,0,0,1,14,50.764l7.105-14.211A1,1,0,0,1,22,36H42a1,1,0,0,1,.9.553L50,50.764A4.968,4.968,0,0,1,49.781,55.628Z"></path><circle cx="24.5" cy="45.5" r="1.5"></circle></g></svg>