<svg height='300px' width='300px'  fill="#000000" xmlns="http://www.w3.org/2000/svg" xmlns:xlink="http://www.w3.org/1999/xlink" version="1.1" x="0px" y="0px" viewBox="0 0 100 100" enable-background="new 0 0 100 100" xml:space="preserve"><path d="M92.073,25.905h-6.708V12.734c0-1.616-1.312-2.927-2.927-2.927h-5.122c-1.615,0-2.927,1.311-2.927,2.927v13.171h-8.901  V12.734c0-1.616-1.312-2.927-2.929-2.927h-5.12c-1.617,0-2.927,1.311-2.927,2.927v13.171h-8.903V12.734  c0-1.616-1.31-2.927-2.927-2.927H37.56c-1.615,0-2.927,1.311-2.927,2.927v13.171h-8.901V12.734c0-1.616-1.312-2.927-2.927-2.927  h-5.122c-1.617,0-2.927,1.311-2.927,2.927v13.171h-6.83C6.31,25.905,5,27.214,5,28.832v40.976c0,1.615,1.311,2.925,2.927,2.925h6.83  v12.929c0,1.615,1.31,2.927,2.927,2.927h5.122c1.615,0,2.927-1.312,2.927-2.927V72.732h8.901v12.929  c0,1.615,1.312,2.927,2.927,2.927h5.123c1.617,0,2.927-1.312,2.927-2.927V72.732h8.903v12.929c0,1.615,1.31,2.927,2.927,2.927h5.12  c1.617,0,2.929-1.312,2.929-2.927V72.732h8.901v12.929c0,1.615,1.312,2.927,2.927,2.927h5.122c1.615,0,2.927-1.312,2.927-2.927  V72.732h6.708c1.615,0,2.927-1.31,2.927-2.925V28.832C95,27.214,93.688,25.905,92.073,25.905z M88.171,65.903H11.828V32.734h76.343  V65.903z M20.08,61.229h59.838c1.617,0,2.927-1.31,2.927-2.927v-18.21c0-1.617-1.31-2.927-2.927-2.927H20.08  c-1.615,0-2.927,1.31-2.927,2.927v18.21C17.153,59.92,18.465,61.229,20.08,61.229z"></path></svg>